<?xml version="1.0" encoding="utf-8"?>
<!-- Generator: Adobe Illustrator 23.0.1, SVG Export Plug-In . SVG Version: 6.00 Build 0)  -->
<svg version="1.1" id="Слой_1" xmlns="http://www.w3.org/2000/svg" xmlns:xlink="http://www.w3.org/1999/xlink" x="0px" y="0px"
	 viewBox="0 0 19.1 21.6" style="enable-background:new 0 0 19.1 21.6;" xml:space="preserve">
<style type="text/css">
	.st0{fill:#FFFFFF;}
</style>
<path class="st0" d="M12,15.7H9.7c-0.4,0-0.6-0.3-0.6-0.7s0.3-0.7,0.6-0.7H12c0.5,0,0.9-0.4,0.9-0.9s-0.4-0.9-0.9-0.9H9.7
	c-0.2,0-0.4-0.1-0.5-0.3S9,12,9.1,11.8l0.8-2.3c0.1-0.3,0.3-0.4,0.6-0.4h3.1c0.4,0,0.7,0.3,0.7,0.6s-0.3,0.6-0.7,0.6h-2.6l-0.3,1H12
	c1.2,0,2.2,1,2.2,2.2C14.1,14.8,13.2,15.7,12,15.7z"/>
<path class="st0" d="M7.1,15.7c-0.4,0-0.6-0.3-0.6-0.7v-3.6l-0.4,0.4c-0.2,0.3-0.7,0.3-0.9,0.1c-0.3-0.2-0.3-0.7-0.1-0.9l1.5-1.7
	C6.8,9.1,7.1,9,7.3,9.1c0.3,0.1,0.4,0.3,0.4,0.6v5.3C7.7,15.4,7.4,15.7,7.1,15.7z"/>
<path class="st0" d="M11.5,4c-0.2,0-0.4-0.1-0.5-0.2L9,1.3C8.8,1,8.8,0.6,9.1,0.4C9.4,0.2,9.8,0.2,10,0.5L12,3
	c0.2,0.3,0.2,0.7-0.1,0.9C11.8,4,11.7,4,11.5,4z"/>
<path class="st0" d="M9.5,21.7c-2.9,0-5.8-1.3-7.7-3.8c-1.5-2.1-2.2-4.6-1.8-7.1S1.6,6,3.7,4.4c2.3-1.7,5.2-2.3,8-1.7
	c0.3,0.1,0.6,0.4,0.5,0.8c-0.1,0.3-0.4,0.6-0.8,0.5C9,3.4,6.4,4,4.5,5.5c-1.8,1.3-2.9,3.3-3.2,5.5s0.3,4.4,1.6,6.2
	c2.8,3.7,8,4.4,11.7,1.6s4.4-8,1.6-11.7c-0.2-0.3-0.2-0.7,0.1-0.9C16.5,6,16.9,6,17.1,6.3c3.2,4.2,2.3,10.3-1.9,13.5
	C13.5,21.1,11.5,21.7,9.5,21.7z"/>
</svg>
