<?xml version="1.0" encoding="utf-8"?>
<!-- Generator: Adobe Illustrator 23.0.1, SVG Export Plug-In . SVG Version: 6.00 Build 0)  -->
<svg version="1.1" id="Слой_1" xmlns="http://www.w3.org/2000/svg" xmlns:xlink="http://www.w3.org/1999/xlink" x="0px" y="0px"
	 viewBox="0 0 18.3 18.3" style="enable-background:new 0 0 18.3 18.3;" xml:space="preserve">
<style type="text/css">
	.st0{fill:#010101;}
</style>
<path id="Контур_1666" class="st0" d="M13,18.3H5.3c-0.9,0.1-1.9-0.2-2.6-0.9c-0.5-0.7-0.7-1.5-0.6-2.3V7.6
	C2.1,7.3,2.4,7,2.8,7c0.4,0,0.6,0.3,0.6,0.6v7.5c-0.1,0.5,0,1,0.3,1.5c0.5,0.3,1,0.5,1.6,0.4H13c0.6,0.1,1.1-0.1,1.6-0.4
	c0.3-0.4,0.4-1,0.3-1.5V7.6c0-0.4,0.3-0.6,0.7-0.6c0.4,0,0.6,0.3,0.6,0.6v7.5c0.1,0.8-0.2,1.7-0.6,2.3C14.9,18.1,13.9,18.4,13,18.3z
	"/>
<path id="Прямоугольник_1137" class="st0" d="M3.2,0h11.9c1.8,0,3.2,1.4,3.2,3.2v1.7c0,1.8-1.4,3.2-3.2,3.2H3.2
	C1.4,8.1,0,6.7,0,4.9V3.2C0,1.4,1.4,0,3.2,0z M15.1,6.8c1,0,1.9-0.9,1.9-1.9c0,0,0,0,0,0V3.2c0-1-0.9-1.9-1.9-1.9H3.2
	c-1,0-1.9,0.9-1.9,1.9l0,0v1.7c0,1,0.9,1.9,1.9,1.9l0,0H15.1z"/>
<path id="Линия_613" class="st0" d="M10.7,11.5H7.6c-0.4,0-0.7-0.3-0.7-0.6c0,0,0,0,0,0c0-0.4,0.3-0.6,0.7-0.6c0,0,0,0,0,0h3.1
	c0.4,0,0.7,0.3,0.7,0.6c0,0,0,0,0,0C11.3,11.2,11.1,11.5,10.7,11.5C10.7,11.5,10.7,11.5,10.7,11.5z"/>
</svg>
