<?xml version="1.0" encoding="utf-8"?>
<!-- Generator: Adobe Illustrator 23.0.1, SVG Export Plug-In . SVG Version: 6.00 Build 0)  -->
<svg version="1.1" id="Слой_1" xmlns="http://www.w3.org/2000/svg" xmlns:xlink="http://www.w3.org/1999/xlink" x="0px" y="0px"
	 viewBox="0 0 11.3 9" style="enable-background:new 0 0 11.3 9;" xml:space="preserve">
<style type="text/css">
	.st0{fill:#FFFFFF;}
</style>
<g id="Сгруппировать_2690" transform="translate(-2999.347 -547.334)">
	<path class="st0" d="M3003.6,547.6c0.2,0,0.3,0.1,0.5,0.2c0.3,0.3,0.3,0.7,0,0.9l-3.1,3.1l3.1,3.1c0.3,0.3,0.3,0.7,0,0.9
		c-0.3,0.3-0.7,0.3-0.9,0l-3.6-3.6c-0.3-0.3-0.3-0.7,0-0.9l3.6-3.6C3003.2,547.7,3003.4,547.6,3003.6,547.6z"/>
	<path class="st0" d="M3000.1,551.2h9.9c0.4,0,0.6,0.3,0.6,0.7s-0.3,0.6-0.6,0.6h-9.9c-0.4,0-0.7-0.3-0.7-0.6
		S2999.7,551.2,3000.1,551.2z"/>
</g>
</svg>
