<?xml version="1.0" encoding="utf-8"?>
<!-- Generator: Adobe Illustrator 23.0.1, SVG Export Plug-In . SVG Version: 6.00 Build 0)  -->
<svg version="1.1" id="Слой_1" xmlns="http://www.w3.org/2000/svg" xmlns:xlink="http://www.w3.org/1999/xlink" x="0px" y="0px"
	 viewBox="0 0 11.3 9" style="enable-background:new 0 0 11.3 9;" xml:space="preserve">
<style type="text/css">
	.st0{fill:#FFFFFF;}
</style>
<g id="Сгруппировать_2690" transform="translate(-2999.347 -547.334)">
	<path class="st0" d="M3006.4,556.1c-0.2,0-0.3-0.1-0.5-0.2c-0.3-0.3-0.3-0.7,0-0.9l3.1-3.1l-3.1-3.1c-0.3-0.3-0.3-0.7,0-0.9
		c0.3-0.3,0.7-0.3,0.9,0l3.6,3.6c0.3,0.3,0.3,0.7,0,0.9l-3.6,3.6C3006.8,556,3006.6,556.1,3006.4,556.1z"/>
	<path class="st0" d="M3009.9,552.5h-9.9c-0.4,0-0.6-0.3-0.6-0.7s0.3-0.6,0.6-0.6h9.9c0.4,0,0.7,0.3,0.7,0.6
		S3010.3,552.5,3009.9,552.5z"/>
</g>
</svg>
