<?xml version="1.0" encoding="utf-8"?>
<!-- Generator: Adobe Illustrator 23.0.1, SVG Export Plug-In . SVG Version: 6.00 Build 0)  -->
<svg version="1.1" id="Слой_1" xmlns="http://www.w3.org/2000/svg" xmlns:xlink="http://www.w3.org/1999/xlink" x="0px" y="0px"
	 viewBox="0 0 12.1 14.3" style="enable-background:new 0 0 12.1 14.3;" xml:space="preserve">
<style type="text/css">
	.st0{fill:#FF4D5A;}
</style>
<path class="st0" d="M0.1,3.7L0,2.7l1.4-0.1c3.5-0.4,7.1-0.2,10.7,0.1l-0.1,1C8.5,3.3,4.9,3.2,1.5,3.5L0.1,3.7z"/>
<path class="st0" d="M7.9,2.6L7.7,1.7C7.6,1.1,7.6,1,6.9,1H5.2C4.5,1,4.5,1.1,4.4,1.7L4.2,2.6l-1-0.2l0.1-0.9C3.5,0.9,3.6,0,5.2,0
	h1.7c1.6,0,1.7,0.9,1.8,1.5l0.1,0.9L7.9,2.6z"/>
<path class="st0" d="M8.2,14.3H3.9c-2.3,0-2.4-1.3-2.5-2.3L1,5.3l1-0.1l0.4,6.7c0.1,1,0.1,1.4,1.5,1.4h4.3c1.4,0,1.4-0.4,1.5-1.4
	l0.4-6.7l1,0.1L10.7,12C10.6,13,10.5,14.3,8.2,14.3z"/>
<rect x="4.9" y="9.7" class="st0" width="2.2" height="1"/>
<rect x="4.4" y="7" class="st0" width="3.3" height="1"/>
</svg>
