<?xml version="1.0" encoding="utf-8"?>
<!-- Generator: Adobe Illustrator 23.0.1, SVG Export Plug-In . SVG Version: 6.00 Build 0)  -->
<svg version="1.1" id="Слой_1" xmlns="http://www.w3.org/2000/svg" xmlns:xlink="http://www.w3.org/1999/xlink" x="0px" y="0px"
	 viewBox="0 0 15.3 15.7" style="enable-background:new 0 0 15.3 15.7;" xml:space="preserve">
<style type="text/css">
	.st0{fill:none;stroke:#0FAD68;stroke-width:1.3;stroke-miterlimit:10;}
	.st1{fill:#0FAD68;}
</style>
<g id="Сгруппировать_2677" transform="translate(-3452.021 -37.672)">
	<path id="Контур_631" class="st0" d="M3457.8,39.6"/>
	<path id="Контур_632" class="st0" d="M3456.1,41.2"/>
	<path class="st1" d="M3462.5,53.3h-5.7c-3.4,0-4-1.6-4.2-3.1l-0.5-5.8c-0.1-1.2,0.1-2.1,0.7-2.8c0.7-0.7,1.8-1.1,3.4-1.1h7.2
		c1.6,0,2.7,0.4,3.4,1.1c0.6,0.6,0.8,1.6,0.7,2.8l-0.5,5.7C3466.6,51.7,3465.9,53.3,3462.5,53.3z M3456.1,41.8c-1.2,0-2,0.2-2.4,0.7
		c-0.3,0.4-0.4,0.9-0.3,1.8l0.5,5.8c0.1,0.9,0.2,2,2.9,2h5.7c2.5,0,2.8-0.9,2.9-2l0.5-5.7c0.1-0.9,0-1.4-0.3-1.8
		c-0.4-0.4-1.2-0.7-2.4-0.7H3456.1z"/>
	<path id="Контур_634" class="st0" d="M3463.3,41.2"/>
	<path class="st1" d="M3463.2,41.2h-1.3v-0.6c0-1.3,0-1.6-1.6-1.6h-1.1c-1.6,0-1.6,0.4-1.6,1.6v0.6h-1.3v-0.6c0-1.2,0-2.9,2.9-2.9
		h1.1c3,0,3,1.7,3,2.9V41.2z"/>
	<path class="st1" d="M3459.7,49c-2.1,0-2.1-1.3-2.1-2.1v-0.7c0-1.1,0.3-1.4,1.4-1.4h1.4c1.1,0,1.4,0.3,1.4,1.4V47
		C3461.8,47.7,3461.8,49,3459.7,49z M3458.9,46.2C3458.9,46.2,3458.9,46.2,3458.9,46.2V47c0,0.8,0,0.8,0.8,0.8c0.8,0,0.8,0,0.8-0.8
		v-0.7c0,0,0,0,0-0.1c0,0,0,0-0.1,0H3458.9C3458.9,46.2,3458.9,46.2,3458.9,46.2z"/>
	<path class="st1" d="M3461.2,47.6l-0.2-1.3c1.9-0.2,3.7-0.9,5.2-2l0.8,1.1C3465.3,46.5,3463.3,47.3,3461.2,47.6z"/>
	<path class="st1" d="M3458.2,47.6c-2-0.2-3.9-1-5.6-2.1l0.7-1.1c1.5,1,3.2,1.7,5,1.9L3458.2,47.6z"/>
</g>
</svg>
