<?xml version="1.0" encoding="utf-8"?>
<!-- Generator: Adobe Illustrator 23.0.1, SVG Export Plug-In . SVG Version: 6.00 Build 0)  -->
<svg version="1.1" id="Слой_1" xmlns="http://www.w3.org/2000/svg" xmlns:xlink="http://www.w3.org/1999/xlink" x="0px" y="0px"
	 viewBox="0 0 16.3 18" style="enable-background:new 0 0 16.3 18;" xml:space="preserve">
<g id="Сгруппировать_1431" transform="translate(-1662.354 -1266.517)">
	<path d="M1667.2,1270.3c-0.4,0-0.6-0.3-0.6-0.6v-2.5c0-0.4,0.3-0.6,0.6-0.6s0.6,0.3,0.6,0.6v2.5
		C1667.8,1270,1667.5,1270.3,1667.2,1270.3z"/>
	<path d="M1673.8,1270.3c-0.4,0-0.7-0.3-0.7-0.6v-2.5c0-0.4,0.3-0.6,0.7-0.6s0.7,0.3,0.7,0.6v2.5
		C1674.5,1270,1674.2,1270.3,1673.8,1270.3z"/>
	<path d="M1673,1284.5h-5c-4.7,0-5.6-2.2-5.6-5.8v-5.1c0-3.9,1.4-5.6,4.8-5.8l6.7,0c0,0,0,0,0,0c3.4,0.2,4.8,1.9,4.8,5.8v5.1
		C1678.7,1282.3,1677.7,1284.5,1673,1284.5z M1667.2,1269.1c-2.3,0.1-3.5,0.9-3.5,4.5v5.1c0,3.2,0.6,4.5,4.4,4.5h5
		c3.7,0,4.3-1.3,4.3-4.5v-5.1c0-3.6-1.2-4.3-3.5-4.5H1667.2z"/>
	<path d="M1677.8,1280.8h-14.6c-0.4,0-0.6-0.3-0.6-0.7s0.3-0.7,0.6-0.7h14.6c0.4,0,0.7,0.3,0.7,0.7S1678.2,1280.8,1677.8,1280.8z"/>
</g>
</svg>
