<?xml version="1.0" encoding="utf-8"?>
<!-- Generator: Adobe Illustrator 23.0.1, SVG Export Plug-In . SVG Version: 6.00 Build 0)  -->
<svg version="1.1" id="Слой_1" xmlns="http://www.w3.org/2000/svg" xmlns:xlink="http://www.w3.org/1999/xlink" x="0px" y="0px"
	 viewBox="0 0 19.2 19.2" style="enable-background:new 0 0 19.2 19.2;" xml:space="preserve">
<path d="M16.6,18H7.3c-0.4,0-0.6-0.3-0.6-0.7s0.3-0.7,0.6-0.7h9.3c0.4,0,0.7,0.3,0.7,0.7S16.9,18,16.6,18z"/>
<path d="M6.9,17.7c-1,0-1.9-0.4-2.6-1.1l-1.8-1.8c-0.7-0.7-1.1-1.6-1.1-2.6c0-1,0.4-1.9,1.1-2.6l7.1-7.1c1.4-1.4,3.8-1.4,5.2,0
	l1.8,1.8c1.4,1.4,1.4,3.7,0,5.2l-7.1,7.1C8.8,17.3,7.9,17.7,6.9,17.7z M12.3,2.8c-0.6,0-1.2,0.2-1.7,0.7l-7.1,7.1
	c-0.4,0.4-0.7,1-0.7,1.7c0,0.6,0.2,1.2,0.7,1.7l1.8,1.8c0.9,0.9,2.4,0.9,3.3,0l7.1-7.1c0.9-0.9,0.9-2.4,0-3.3l-1.8-1.8
	C13.5,3.1,12.9,2.8,12.3,2.8z"/>
<path d="M11.8,14c-0.2,0-0.3-0.1-0.5-0.2l-6-6c-0.3-0.3-0.3-0.7,0-0.9s0.7-0.3,0.9,0l6,6c0.3,0.3,0.3,0.7,0,0.9
	C12.1,14,12,14,11.8,14z"/>
<path d="M3,14.6c-0.2,0-0.3-0.1-0.5-0.2c-0.3-0.3-0.3-0.7,0-0.9l4.4-4.4c0.3-0.3,0.7-0.3,0.9,0s0.3,0.7,0,0.9l-4.4,4.4
	C3.4,14.6,3.2,14.6,3,14.6z"/>
<path d="M5.2,16.8c-0.2,0-0.3-0.1-0.5-0.2c-0.3-0.3-0.3-0.7,0-0.9l4.4-4.4c0.3-0.3,0.7-0.3,0.9,0s0.3,0.7,0,0.9l-4.4,4.4
	C5.5,16.7,5.4,16.8,5.2,16.8z"/>
</svg>
