<?xml version="1.0" encoding="utf-8"?>
<!-- Generator: Adobe Illustrator 23.0.1, SVG Export Plug-In . SVG Version: 6.00 Build 0)  -->
<svg version="1.1" id="Слой_1" xmlns="http://www.w3.org/2000/svg" xmlns:xlink="http://www.w3.org/1999/xlink" x="0px" y="0px"
	 viewBox="0 0 15.3 15.3" style="enable-background:new 0 0 15.3 15.3;" xml:space="preserve">
<path d="M10.7,15.3h-6c-2.6,0-4.6-2.1-4.6-4.7v-6C0,2.1,2.1,0,4.6,0h6c2.6,0,4.7,2.1,4.7,4.6v6C15.3,13.2,13.2,15.3,10.7,15.3z
	 M4.6,1.3c-1.8,0-3.4,1.5-3.4,3.4v6c0,1.8,1.5,3.3,3.4,3.3h6c1.8,0,3.3-1.5,3.3-3.3v-6c0-1.8-1.5-3.4-3.3-3.4H4.6z"/>
<path d="M7.6,14.7c-0.4,0-0.6-0.3-0.6-0.7V1.1c0-0.4,0.3-0.6,0.6-0.6s0.6,0.3,0.6,0.6v12.9C8.3,14.4,8,14.7,7.6,14.7z"/>
<path d="M14.7,8.3h-7C7.3,8.3,7,8,7,7.6S7.3,7,7.6,7h7c0.4,0,0.7,0.3,0.7,0.6S15,8.3,14.7,8.3z"/>
</svg>
