<?xml version="1.0" encoding="utf-8"?>
<!-- Generator: Adobe Illustrator 23.0.1, SVG Export Plug-In . SVG Version: 6.00 Build 0)  -->
<svg version="1.1" id="Слой_1" xmlns="http://www.w3.org/2000/svg" xmlns:xlink="http://www.w3.org/1999/xlink" x="0px" y="0px"
	 viewBox="0 0 16.3 16.3" style="enable-background:new 0 0 16.3 16.3;" xml:space="preserve">
<style type="text/css">
	.st0{fill:none;stroke:#8A919F;stroke-width:1.3;stroke-miterlimit:10;}
	.st1{fill:#8A919F;}
</style>
<g id="Сгруппировать_2337" transform="translate(-8760.85 -1661.839)">
	<path id="Контур_359" class="st0" d="M8770.9,1668.9"/>
	<path class="st1" d="M8773.1,1678.2C8773.1,1678.2,8773.1,1678.2,8773.1,1678.2c-1,0-1.9-0.2-2.7-0.6c-0.9-0.4-1.9-0.9-2.7-1.6
		c-0.9-0.7-1.7-1.4-2.5-2.2c-0.8-0.8-1.5-1.6-2.2-2.5c-0.6-0.8-1.1-1.7-1.5-2.7c-0.4-0.9-0.6-1.8-0.6-2.7c0-0.6,0.1-1.2,0.3-1.7
		c0.2-0.6,0.6-1.1,1-1.5c0.5-0.5,1.2-0.9,2-0.9c0,0,0,0,0,0c0.3,0,0.6,0.1,0.9,0.2c0.3,0.1,0.6,0.4,0.8,0.6l1.7,2.4
		c0.1,0.2,0.3,0.4,0.4,0.7c0.1,0.2,0.1,0.4,0.2,0.7c0,0.3-0.1,0.6-0.3,0.9c-0.1,0.2-0.3,0.5-0.5,0.7l-0.5,0.5
		c0.2,0.3,0.4,0.6,0.6,0.8c0.3,0.4,0.7,0.8,1.1,1.2c0.4,0.4,0.8,0.8,1.2,1.1c0.3,0.2,0.5,0.4,0.8,0.6l0.5-0.5
		c0.2-0.2,0.4-0.4,0.7-0.5c0.2-0.2,0.5-0.2,0.9-0.2c0.3,0,0.5,0.1,0.7,0.2c0.2,0.1,0.4,0.2,0.6,0.4l2.5,1.8c0.3,0.2,0.5,0.4,0.6,0.7
		c0.1,0.3,0.2,0.6,0.2,0.9v0c0,0.4-0.1,0.8-0.3,1.1c-0.2,0.3-0.4,0.6-0.6,0.9c-0.4,0.4-0.9,0.8-1.5,1
		C8774.3,1678,8773.7,1678.2,8773.1,1678.2z M8764.2,1663.1C8764.2,1663.1,8764.2,1663.1,8764.2,1663.1c-0.4,0-0.8,0.2-1.1,0.5
		c-0.3,0.3-0.6,0.7-0.7,1.1c-0.1,0.4-0.2,0.8-0.2,1.2c0,0.8,0.2,1.5,0.5,2.2c0.4,0.9,0.8,1.7,1.4,2.4c0.6,0.8,1.3,1.6,2,2.4
		c0.7,0.7,1.5,1.4,2.4,2c0.8,0.6,1.6,1,2.5,1.4c0.7,0.3,1.4,0.5,2.2,0.5c0.4,0,0.8-0.1,1.2-0.2c0.4-0.2,0.7-0.4,1-0.7
		c0.2-0.2,0.3-0.4,0.4-0.6c0.1-0.2,0.1-0.4,0.1-0.5c0-0.1,0-0.2-0.1-0.3c0-0.1-0.1-0.1-0.2-0.2l-2.5-1.8c-0.1-0.1-0.3-0.2-0.4-0.2
		c-0.1,0-0.1,0-0.2,0c-0.1,0-0.1,0-0.2,0.1c-0.2,0.1-0.3,0.2-0.4,0.3l-0.6,0.6c-0.2,0.2-0.5,0.3-0.8,0.3c-0.1,0-0.3,0-0.4-0.1
		l-0.2-0.1c-0.4-0.2-0.7-0.5-1.1-0.8c-0.4-0.3-0.8-0.7-1.2-1.1c-0.4-0.4-0.8-0.8-1.1-1.2c-0.3-0.3-0.5-0.7-0.8-1.1l-0.1-0.3
		c0-0.2-0.1-0.3-0.1-0.4c0-0.3,0.1-0.6,0.3-0.8l0.6-0.6c0.1-0.1,0.2-0.3,0.3-0.4c0-0.1,0.1-0.1,0.1-0.2c0,0,0-0.1,0-0.2
		c-0.1-0.2-0.1-0.3-0.2-0.4l-1.8-2.5c-0.1-0.1-0.1-0.2-0.2-0.2C8764.4,1663.2,8764.3,1663.1,8764.2,1663.1z M8770.4,1672.2
		C8770.4,1672.2,8770.4,1672.2,8770.4,1672.2L8770.4,1672.2z"/>
</g>
</svg>
