<?xml version="1.0" encoding="utf-8"?>
<!-- Generator: Adobe Illustrator 23.0.1, SVG Export Plug-In . SVG Version: 6.00 Build 0)  -->
<svg version="1.1" id="Слой_1" xmlns="http://www.w3.org/2000/svg" xmlns:xlink="http://www.w3.org/1999/xlink" x="0px" y="0px"
	 viewBox="0 0 10.1 10.1" style="enable-background:new 0 0 10.1 10.1;" xml:space="preserve">
<g id="Сгруппировать_662" transform="translate(-1485.829 -2429.092)">
	<path d="M1494.9,2438.9c-0.2,0-0.4-0.1-0.5-0.2l-8-8c-0.3-0.3-0.3-0.8,0-1.1s0.8-0.3,1.1,0l8,8c0.3,0.3,0.3,0.8,0,1.1
		C1495.3,2438.8,1495.1,2438.9,1494.9,2438.9z"/>
	<path d="M1486.9,2438.9c-0.2,0-0.4-0.1-0.5-0.2c-0.3-0.3-0.3-0.8,0-1.1l8-8c0.3-0.3,0.8-0.3,1.1,0s0.3,0.8,0,1.1l-8,8
		C1487.3,2438.8,1487.1,2438.9,1486.9,2438.9z"/>
</g>
</svg>
