<?xml version="1.0" encoding="utf-8"?>
<!-- Generator: Adobe Illustrator 23.0.1, SVG Export Plug-In . SVG Version: 6.00 Build 0)  -->
<svg version="1.1" id="Слой_1" xmlns="http://www.w3.org/2000/svg" xmlns:xlink="http://www.w3.org/1999/xlink" x="0px" y="0px"
	 viewBox="0 0 13.3 13.3" style="enable-background:new 0 0 13.3 13.3;" xml:space="preserve">
<path d="M6.7,13.3C3,13.3,0,10.3,0,6.6C0,3,3,0,6.7,0s6.7,3,6.7,6.6C13.3,10.3,10.3,13.3,6.7,13.3z M6.7,1.3c-3,0-5.4,2.4-5.4,5.4
	c0,3,2.4,5.4,5.4,5.4S12,9.6,12,6.6C12,3.7,9.6,1.3,6.7,1.3z"/>
<path d="M8.5,9.1L6.7,8C6.1,7.6,5.8,7.1,5.8,6.5l0-2.5h1.3v2.5c0,0.2,0.1,0.4,0.3,0.5L9.2,8L8.5,9.1z"/>
</svg>
