<?xml version="1.0" encoding="utf-8"?>
<!-- Generator: Adobe Illustrator 23.0.1, SVG Export Plug-In . SVG Version: 6.00 Build 0)  -->
<svg version="1.1" id="Слой_1" xmlns="http://www.w3.org/2000/svg" xmlns:xlink="http://www.w3.org/1999/xlink" x="0px" y="0px"
	 viewBox="0 0 17.2 17.8" style="enable-background:new 0 0 17.2 17.8;" xml:space="preserve">
<style type="text/css">
	.st0{fill:#0FAD68;}
</style>
<polygon class="st0" points="13.2,17.4 11,15.2 11.9,14.2 13.2,15.5 16.3,12.5 17.2,13.4 "/>
<rect x="4.3" class="st0" width="1.3" height="2.6"/>
<rect x="11.1" class="st0" width="1.3" height="2.6"/>
<rect x="1.1" y="5.4" class="st0" width="14.5" height="1.3"/>
<path class="st0" d="M8.3,17.8H4.9C1.8,17.8,0,16,0,12.8V5.6c0-3.1,1.8-4.9,4.9-4.9h6.8c3.1,0,4.9,1.8,4.9,4.9v3h-1.3v-3
	c0-2.4-1.2-3.6-3.6-3.6H4.9c-2.4,0-3.6,1.2-3.6,3.6v7.3c0,2.4,1.2,3.6,3.6,3.6h3.4V17.8z"/>
</svg>
