<svg xmlns="http://www.w3.org/2000/svg" width="15.3" height="15.342" viewBox="0 0 15.3 15.342">
  <g id="Сгруппировать_3005" data-name="Сгруппировать 3005" transform="translate(-655.741 -539.359)">
    <path id="Контур_1433" data-name="Контур 1433" d="M663.392,554.7a1.71,1.71,0,0,1-1.36-.722l-1.04-1.387a.234.234,0,0,0-.065-.033h-.335a5.359,5.359,0,0,1-3.578-.948c-.868-.759-1.272-2-1.272-3.9v-3.5a4.349,4.349,0,0,1,4.85-4.85h5.6a4.348,4.348,0,0,1,4.85,4.85v3.5a4.348,4.348,0,0,1-4.85,4.85h-.35a.052.052,0,0,0-.041.022l-1.047,1.4A1.71,1.71,0,0,1,663.392,554.7Zm-2.8-14.042a3.082,3.082,0,0,0-3.55,3.55v3.5c0,1.5.263,2.429.828,2.923a4.069,4.069,0,0,0,2.722.627h.351a1.436,1.436,0,0,1,1.079.539l1.051,1.4a.354.354,0,0,0,.64,0l1.049-1.4a1.361,1.361,0,0,1,1.08-.54h.35a3.081,3.081,0,0,0,3.55-3.55v-3.5a3.081,3.081,0,0,0-3.55-3.55Z"/>
    <path id="Линия_147" data-name="Линия 147" d="M7,.65H0A.65.65,0,0,1-.65,0,.65.65,0,0,1,0-.65H7A.65.65,0,0,1,7.65,0,.65.65,0,0,1,7,.65Z" transform="translate(659.892 544.209)"/>
    <path id="Линия_148" data-name="Линия 148" d="M4.2.65H0A.65.65,0,0,1-.65,0,.65.65,0,0,1,0-.65H4.2A.65.65,0,0,1,4.85,0,.65.65,0,0,1,4.2.65Z" transform="translate(659.892 547.709)"/>
  </g>
</svg>
