<svg xmlns="http://www.w3.org/2000/svg" width="21.5" height="18.5" viewBox="0 0 21.5 18.5">
  <g id="Сгруппировать_859" data-name="Сгруппировать 859" transform="translate(-2839.999 -326.714)">
    <path id="Линия_83" data-name="Линия 83" d="M20,.75H0V-.75H20Z" transform="translate(2840.749 332.464)" fill="#0fad68"/>
    <path id="Линия_84" data-name="Линия 84" d="M2,.75H0V-.75H2Z" transform="translate(2844.749 340.464)" fill="#0fad68"/>
    <path id="Линия_85" data-name="Линия 85" d="M4,.75H0V-.75H4Z" transform="translate(2849.249 340.464)" fill="#0fad68"/>
    <path id="Контур_370" data-name="Контур 370" d="M2845.194,326.714H2856.3c2.113,0,3.3.317,4.083,1.1.977.966,1.112,2.516,1.112,4.048v8.214c0,1.532-.135,3.082-1.112,4.048-.787.778-1.97,1.095-4.083,1.095h-11.111c-2.113,0-3.3-.317-4.083-1.095-.977-.966-1.112-2.516-1.112-4.048v-8.214c0-1.532.135-3.082,1.112-4.048C2841.9,327.031,2843.081,326.714,2845.194,326.714Zm11.111,17c1.653,0,2.559-.2,3.028-.662s.666-1.353.666-2.981v-8.214c0-1.628-.2-2.519-.666-2.981s-1.375-.662-3.028-.662h-11.111c-1.653,0-2.559.2-3.029.662s-.666,1.353-.666,2.981v8.214c0,1.628.2,2.52.666,2.981s1.375.662,3.029.662Z" fill="#0fad68"/>
  </g>
</svg>
