<?xml version="1.0" encoding="utf-8"?>
<!-- Generator: Adobe Illustrator 23.0.1, SVG Export Plug-In . SVG Version: 6.00 Build 0)  -->
<svg version="1.1" id="Слой_1" xmlns="http://www.w3.org/2000/svg" xmlns:xlink="http://www.w3.org/1999/xlink" x="0px" y="0px"
	 viewBox="0 0 19.3 20" style="enable-background:new 0 0 19.3 20;" xml:space="preserve">
<g id="Сгруппировать_698" transform="translate(-1724.848 -2567.285)">
	<g id="Сгруппировать_697">
		<path d="M1727.2,2587.3c-0.2,0-0.3,0-0.5,0c-1.3-0.3-2.1-1.5-1.9-2.8l0.4-3.6c0.1-0.7,0.4-1.4,0.9-2l9.3-9.8c1-1.1,2-1.7,3-1.8
			c1.2-0.2,2.5,0.4,3.8,1.6c1.3,1.2,1.9,2.5,1.8,3.7c-0.1,1-0.6,2.1-1.6,3.1l-9.2,9.8c-0.5,0.5-1.2,0.9-1.9,1l-3.6,0.6
			C1727.6,2587.3,1727.4,2587.3,1727.2,2587.3z M1738.9,2568.6c-0.1,0-0.2,0-0.3,0c-0.7,0.1-1.5,0.5-2.3,1.4l0,0l-9.2,9.8
			c-0.3,0.3-0.5,0.8-0.6,1.3l-0.4,3.6c-0.1,0.6,0.3,1.2,0.8,1.3c0.2,0,0.3,0,0.5,0l3.7-0.6c0.4-0.1,0.9-0.3,1.2-0.7l9.2-9.8
			c0.8-0.8,1.2-1.6,1.3-2.3c0.1-0.9-0.4-1.8-1.4-2.7C1740.5,2569,1739.7,2568.6,1738.9,2568.6z M1735.9,2569.5L1735.9,2569.5
			L1735.9,2569.5z"/>
		<path d="M1740.5,2577.6C1740.5,2577.6,1740.5,2577.6,1740.5,2577.6c-3.5-0.3-6.2-2.9-6.8-6.3c-0.1-0.4,0.2-0.7,0.5-0.7
			c0.4-0.1,0.7,0.2,0.7,0.5c0.4,2.8,2.7,5,5.5,5.2c0.4,0,0.6,0.4,0.6,0.7C1741.1,2577.4,1740.8,2577.6,1740.5,2577.6z"/>
	</g>
</g>
</svg>
