<?xml version="1.0" encoding="utf-8"?>
<!-- Generator: Adobe Illustrator 23.0.1, SVG Export Plug-In . SVG Version: 6.00 Build 0)  -->
<svg version="1.1" id="Слой_1" xmlns="http://www.w3.org/2000/svg" xmlns:xlink="http://www.w3.org/1999/xlink" x="0px" y="0px"
	 viewBox="0 0 16.3 16.3" style="enable-background:new 0 0 16.3 16.3;" xml:space="preserve">
<style type="text/css">
	.st0{fill:#010101;}
</style>
<path id="Контур_1667" class="st0" d="M8.9,8.1c-0.4,0-0.6-0.3-0.6-0.7c0-0.2,0.1-0.3,0.2-0.5l6.1-6.1c0.3-0.2,0.7-0.2,0.9,0
	c0.2,0.3,0.2,0.6,0,0.9L9.4,7.9C9.2,8,9.1,8.1,8.9,8.1z"/>
<path id="Контур_1668" class="st0" d="M15.6,4.9c-0.4,0-0.6-0.3-0.6-0.6V1.3h-3c-0.4,0-0.6-0.3-0.6-0.7C11.4,0.3,11.7,0,12,0
	h3.6c0.4,0,0.6,0.3,0.6,0.6v3.6C16.3,4.6,16,4.9,15.6,4.9z"/>
<path id="Контур_1669" class="st0" d="M10.4,16.3H5.9c-2.1,0-3.5-0.4-4.5-1.4S0,12.5,0,10.4V5.9c0-2.1,0.4-3.5,1.4-4.5
	S3.8,0,5.9,0h1.5C7.8,0,8,0.3,8,0.7C8,1,7.8,1.3,7.4,1.3H5.9c-3.4,0-4.6,1.2-4.6,4.6v4.5c0,3.4,1.2,4.6,4.6,4.6h4.5
	c3.4,0,4.6-1.2,4.6-4.6V8.9c0-0.4,0.3-0.6,0.7-0.6c0.4,0,0.6,0.3,0.6,0.6v1.5c0,2.1-0.4,3.5-1.4,4.5S12.5,16.3,10.4,16.3z"/>
</svg>
