<?xml version="1.0" encoding="utf-8"?>
<!-- Generator: Adobe Illustrator 23.0.1, SVG Export Plug-In . SVG Version: 6.00 Build 0)  -->
<svg version="1.1" id="Слой_1" xmlns="http://www.w3.org/2000/svg" xmlns:xlink="http://www.w3.org/1999/xlink" x="0px" y="0px"
	 viewBox="0 0 13.2 14.4" style="enable-background:new 0 0 13.2 14.4;" xml:space="preserve">
<path id="Контур_815" d="M9.2,0L9.2,0c0.8,0,1.6,0.4,2.2,1c0.7,0.6,1.1,1.5,1.1,2.4c-0.1,0.8-0.5,1.5-1,2L6,11.2
	c-0.3,0.3-0.8,0.6-1.3,0.7l-2.1,0.4c-0.1,0-0.2,0-0.3,0c-0.5,0-0.9-0.2-1.2-0.5c-0.3-0.4-0.5-0.9-0.4-1.3l0.2-2.2
	C1,7.8,1.2,7.3,1.5,6.9L7,1.1C7.5,0.5,8.4,0.1,9.2,0z M2.3,11.1c0,0,0.1,0,0.1,0l2.1-0.4c0.2-0.1,0.4-0.2,0.6-0.3l5.5-5.8
	c0.8-0.9,1.1-1.6-0.1-2.7c-0.3-0.4-0.8-0.6-1.3-0.7C8.7,1.3,8.2,1.5,7.9,2L2.4,7.8C2.3,7.9,2.2,8.1,2.1,8.4l-0.2,2.2
	c0,0.1,0,0.3,0.1,0.4C2.1,11,2.2,11.1,2.3,11.1L2.3,11.1z"/>
<path id="Контур_816" d="M10.2,6.6L10.2,6.6C8,6.3,6.3,4.7,5.9,2.6C5.9,2.3,6.1,2,6.4,1.9s0.6,0.2,0.7,0.5
	C7.4,4,8.6,5.2,10.2,5.4c0.3,0,0.6,0.3,0.6,0.6C10.8,6.3,10.5,6.6,10.2,6.6L10.2,6.6z"/>
<path id="Линия_286" d="M12.6,14.4h-12c-0.3,0-0.6-0.3-0.6-0.6c0,0,0,0,0,0c0-0.3,0.3-0.6,0.6-0.6c0,0,0,0,0,0h12
	c0.3,0,0.6,0.3,0.6,0.6c0,0,0,0,0,0C13.2,14.2,12.9,14.4,12.6,14.4L12.6,14.4z"/>
</svg>
