<?xml version="1.0" encoding="utf-8"?>
<!-- Generator: Adobe Illustrator 23.0.1, SVG Export Plug-In . SVG Version: 6.00 Build 0)  -->
<svg version="1.1" id="Слой_1" xmlns="http://www.w3.org/2000/svg" xmlns:xlink="http://www.w3.org/1999/xlink" x="0px" y="0px"
	 viewBox="0 0 16 13.5" style="enable-background:new 0 0 16 13.5;" xml:space="preserve">
<style type="text/css">
	.st0{fill:#8A919F;}
</style>
<path class="st0" d="M8,5.1c-0.9,0-1.6,0.7-1.6,1.6S7.1,8.4,8,8.4s1.6-0.7,1.6-1.6S8.9,5.1,8,5.1 M8,3.8c1.6,0,2.9,1.3,2.9,2.9
	S9.6,9.7,8,9.7c-1.6,0-2.9-1.3-2.9-2.9S6.4,3.8,8,3.8z"/>
<path class="st0" d="M8,12.2c1.2,0,2.3-0.3,3.4-1c1.1-0.7,2.1-1.7,2.9-3c0.5-0.7,0.5-2.1,0-2.8c-0.8-1.3-1.8-2.3-2.9-3
	c-1.1-0.7-2.2-1-3.4-1c-1.2,0-2.3,0.3-3.4,1C3.5,3,2.5,4,1.6,5.3c-0.5,0.7-0.5,2.1,0,2.8c0.8,1.3,1.8,2.3,2.9,3
	C5.7,11.9,6.8,12.2,8,12.2 M8,13.5L8,13.5C8,13.5,8,13.5,8,13.5z M8,13.5c-2.9,0-5.6-1.7-7.5-4.6c-0.7-1.1-0.7-3.1,0-4.2
	C2.4,1.7,5.1,0,8,0c2.9,0,5.6,1.7,7.4,4.6c0.7,1.1,0.7,3.1,0,4.2C13.6,11.8,10.9,13.5,8,13.5z M8,0C8,0,8,0,8,0L8,0C8,0,8,0,8,0z"/>
</svg>
