<?xml version="1.0" encoding="utf-8"?>
<!-- Generator: Adobe Illustrator 23.0.1, SVG Export Plug-In . SVG Version: 6.00 Build 0)  -->
<svg version="1.1" id="Слой_1" xmlns="http://www.w3.org/2000/svg" xmlns:xlink="http://www.w3.org/1999/xlink" x="0px" y="0px"
	 viewBox="0 0 18.2 17.9" style="enable-background:new 0 0 18.2 17.9;" xml:space="preserve">
<style type="text/css">
	.st0{fill:#8A919F;}
</style>
<path class="st0" d="M9,7.2C8.1,7.3,7.4,8,7.4,8.9L9,7.2 M9.1,5.9c0.8,0,1.6,0.3,2.2,0.9L7,11.1C6.4,10.6,6.1,9.8,6.1,9
	C6.1,7.3,7.4,5.9,9.1,5.9z"/>
<path class="st0" d="M3.2,14.3c-0.9-0.8-1.8-1.8-2.4-2.8c-0.9-1.6-0.9-3.5,0-5.1c2.1-3.3,5.1-5.2,8.3-5.2c1.9,0,3.8,0.7,5.3,1.9
	l-0.8,1c-1.3-1-2.9-1.6-4.6-1.6c-2.7,0-5.4,1.6-7.2,4.5c-0.6,1.1-0.6,2.6,0,3.7c0.6,0.9,1.3,1.8,2.2,2.5L3.2,14.3z"/>
<path class="st0" d="M9.1,16.6c-1.1,0-2.3-0.2-3.3-0.7l0.5-1.2c0.9,0.4,1.8,0.6,2.8,0.6c2.7,0,5.4-1.6,7.2-4.5
	c0.6-1.1,0.6-2.6,0-3.7c-0.2-0.4-0.5-0.8-0.8-1.2l1-0.8c0.3,0.4,0.7,0.9,0.9,1.3c0.9,1.6,0.9,3.5,0,5.1
	C15.3,14.8,12.3,16.6,9.1,16.6z"/>
<path class="st0" d="M9.8,12.6l-0.3-1.3c1-0.2,1.7-0.9,1.9-1.9l1.3,0.2C12.4,11.2,11.3,12.3,9.8,12.6z"/>
<rect x="-0.7" y="13.6" transform="matrix(0.7075 -0.7067 0.7067 0.7075 -8.9889 6.8529)" class="st0" width="9" height="1.3"/>
<rect x="9.9" y="3" transform="matrix(0.7067 -0.7075 0.7075 0.7067 1.6622 11.278)" class="st0" width="9" height="1.3"/>
</svg>
