<?xml version="1.0" encoding="utf-8"?>
<!-- Generator: Adobe Illustrator 23.0.5, SVG Export Plug-In . SVG Version: 6.00 Build 0)  -->
<svg version="1.1" id="Слой_1" xmlns="http://www.w3.org/2000/svg" xmlns:xlink="http://www.w3.org/1999/xlink" x="0px" y="0px"
	 viewBox="0 0 13.8 19.5" style="enable-background:new 0 0 13.8 19.5;" xml:space="preserve">
<style type="text/css">
	.st0{fill:#8A919F;}
</style>
<path class="st0" d="M0.8,19.5c-0.4,0-0.8-0.3-0.8-0.8v-18C0,0.3,0.3,0,0.8,0s0.8,0.3,0.8,0.8v18C1.5,19.2,1.2,19.5,0.8,19.5z"/>
<path class="st0" d="M10.8,14.1H0.8c-0.4,0-0.8-0.3-0.8-0.8s0.3-0.8,0.8-0.8h10.1c0.9,0,1.4-0.2,1.5-0.4c0.1-0.2,0-0.6-0.7-1.3
	l-1.1-1.1c0,0-0.1-0.1-0.1-0.1c-0.9-1-0.9-2.6,0.1-3.5l1.1-1.1c0.7-0.7,0.8-1.2,0.8-1.4c-0.1-0.1-0.4-0.4-1.5-0.4H0.8
	C0.3,3.3,0,3,0,2.5s0.3-0.8,0.8-0.8h10.1c2,0,2.7,0.8,2.9,1.3c0.2,0.5,0.3,1.6-1.1,3l-1.1,1.1c-0.4,0.4-0.4,1,0,1.4l1.1,1.1
	c1.4,1.4,1.3,2.5,1.1,3C13.5,13.2,12.8,14.1,10.8,14.1z"/>
</svg>
