<?xml version="1.0" encoding="utf-8"?>
<!-- Generator: Adobe Illustrator 23.0.1, SVG Export Plug-In . SVG Version: 6.00 Build 0)  -->
<svg version="1.1" id="Слой_1" xmlns="http://www.w3.org/2000/svg" xmlns:xlink="http://www.w3.org/1999/xlink" x="0px" y="0px"
	 viewBox="0 0 18.3 16.6" style="enable-background:new 0 0 18.3 16.6;" xml:space="preserve">
<g id="Сгруппировать_9320" transform="translate(-7505.35 -1492.2)">
	<path d="M7523,1496.5h-5.1c-0.4,0-0.7-0.3-0.7-0.6s0.3-0.6,0.7-0.6h5.1c0.4,0,0.7,0.3,0.7,0.6S7523.4,1496.5,7523,1496.5z"/>
	<path d="M7509.4,1496.5h-3.4c-0.4,0-0.6-0.3-0.6-0.6s0.3-0.6,0.6-0.6h3.4c0.4,0,0.6,0.3,0.6,0.6S7509.8,1496.5,7509.4,1496.5z"/>
	<path d="M7512.8,1499.4c-2,0-3.6-1.6-3.6-3.6s1.6-3.6,3.6-3.6c2,0,3.6,1.6,3.6,3.6S7514.8,1499.4,7512.8,1499.4z M7512.8,1493.5
		c-1.3,0-2.3,1-2.3,2.3s1,2.3,2.3,2.3c1.3,0,2.3-1,2.3-2.3S7514.1,1493.5,7512.8,1493.5z"/>
	<path d="M7523,1505.8h-3.4c-0.4,0-0.7-0.3-0.7-0.7s0.3-0.7,0.7-0.7h3.4c0.4,0,0.7,0.3,0.7,0.7S7523.4,1505.8,7523,1505.8z"/>
	<path d="M7511.1,1505.8h-5.1c-0.4,0-0.6-0.3-0.6-0.7s0.3-0.7,0.6-0.7h5.1c0.4,0,0.6,0.3,0.6,0.7S7511.5,1505.8,7511.1,1505.8z"/>
	<path d="M7516.2,1508.8c-2,0-3.6-1.6-3.6-3.6s1.6-3.6,3.6-3.6c2,0,3.6,1.6,3.6,3.6S7518.2,1508.8,7516.2,1508.8z M7516.2,1502.9
		c-1.3,0-2.3,1-2.3,2.3s1,2.3,2.3,2.3c1.3,0,2.3-1,2.3-2.3S7517.5,1502.9,7516.2,1502.9z"/>
</g>
</svg>
