<?xml version="1.0" encoding="utf-8"?>
<!-- Generator: Adobe Illustrator 23.0.1, SVG Export Plug-In . SVG Version: 6.00 Build 0)  -->
<svg version="1.1" id="Слой_1" xmlns="http://www.w3.org/2000/svg" xmlns:xlink="http://www.w3.org/1999/xlink" x="0px" y="0px"
	 viewBox="0 0 12.3 14.8" style="enable-background:new 0 0 12.3 14.8;" xml:space="preserve">
<style type="text/css">
	.st0{fill:#8A919F;}
</style>
<path id="Контур_120" class="st0" d="M6.9,14.8H5.4c-2.5,0.4-4.9-1.2-5.4-3.8c-0.1-0.5-0.1-1.1,0-1.6V5.4
	C-0.5,2.9,1.2,0.4,3.8,0c0.5-0.1,1.1-0.1,1.6,0h0.8c0.4,0,0.6,0.3,0.6,0.7c0,0.4-0.3,0.6-0.6,0.6H5.4c-3,0-4.1,1.1-4.1,4.1v4.1
	c0,3,1.1,4.1,4.1,4.1h1.5c3,0,4.1-1.1,4.1-4.1V6.1c0-0.4,0.3-0.6,0.7-0.6c0.4,0,0.6,0.3,0.6,0.6v3.4c0.4,2.5-1.2,4.9-3.8,5.4
	C8,14.9,7.4,14.9,6.9,14.8L6.9,14.8z"/>
<path id="Контур_121" class="st0" d="M11.7,6.7H8.9C7.4,7,5.9,6,5.6,4.5c-0.1-0.4-0.1-0.7,0-1.1V0.7C5.6,0.3,5.9,0,6.2,0
	c0.2,0,0.3,0.1,0.5,0.2l5.4,5.4c0.3,0.3,0.3,0.7,0,0.9C12,6.6,11.8,6.7,11.7,6.7z M6.9,2.2v1.1C6.6,4.2,7.1,5.1,7.9,5.4
	c0.3,0.1,0.7,0.1,1,0h1.1L6.9,2.2z"/>
</svg>
