<?xml version="1.0" encoding="utf-8"?>
<!-- Generator: Adobe Illustrator 23.0.1, SVG Export Plug-In . SVG Version: 6.00 Build 0)  -->
<svg version="1.1" id="Слой_1" xmlns="http://www.w3.org/2000/svg" xmlns:xlink="http://www.w3.org/1999/xlink" x="0px" y="0px"
	 viewBox="0 0 19.3 19.4" style="enable-background:new 0 0 19.3 19.4;" xml:space="preserve">
<path d="M9.7,15.9c-0.4,0-0.6-0.3-0.6-0.7v-2.7c0-0.4,0.3-0.7,0.6-0.7s0.6,0.3,0.6,0.7v2.7C10.4,15.6,10.1,15.9,9.7,15.9z"/>
<path d="M14.8,19.5H4.4c-2.5,0-4.4-2-4.4-4.5V8.3c0.1-1.4,0.7-2.6,1.7-3.5l4.9-3.7c1.5-1.1,3.5-1.2,5.1-0.2l5.6,3.9
	c1.2,1,1.9,2.3,1.9,3.6V15C19.3,17.5,17.3,19.5,14.8,19.5z M9.3,1.5c-0.7,0-1.4,0.2-2,0.6c0,0,0,0,0,0L2.5,5.8
	C1.8,6.5,1.3,7.3,1.2,8.4l0,6.6c0,1.7,1.4,3.1,3.1,3.1h10.4c1.7,0,3.1-1.4,3.1-3.1V8.4c0-1-0.5-1.9-1.4-2.6L11,1.9
	C10.5,1.6,9.9,1.5,9.3,1.5z M7,1.6L7,1.6L7,1.6z"/>
</svg>
