<?xml version="1.0" encoding="utf-8"?>
<!-- Generator: Adobe Illustrator 23.0.1, SVG Export Plug-In . SVG Version: 6.00 Build 0)  -->
<svg version="1.1" id="Слой_1" xmlns="http://www.w3.org/2000/svg" xmlns:xlink="http://www.w3.org/1999/xlink" x="0px" y="0px"
	 viewBox="0 0 16 16" style="enable-background:new 0 0 16 16;" xml:space="preserve">
<style type="text/css">
	.st0{fill:#FF4D5A;}
</style>
<path id="Контур_1996" class="st0" d="M8,0C3.6,0,0,3.6,0,8s3.6,8,8,8s8-3.6,8-8S12.4,0,8,0z M8,14.7c-3.7,0-6.7-3-6.7-6.7
	s3-6.7,6.7-6.7c3.7,0,6.7,3,6.7,6.7C14.7,11.7,11.7,14.7,8,14.7L8,14.7z"/>
<path id="Контур_1997" class="st0" d="M8,9.4C7.5,9.4,7.1,9,7.1,8.5c0,0,0,0,0,0v-4C7.1,4,7.5,3.6,8,3.6
	c0.5,0,0.9,0.4,0.9,0.8c0,0,0,0,0,0v4C8.9,9,8.5,9.4,8,9.4L8,9.4z"/>
<circle id="Эллипс_543" class="st0" cx="8" cy="11.3" r="1"/>
</svg>
