<svg xmlns="http://www.w3.org/2000/svg" width="17.2" height="10" viewBox="0 0 17.2 10">
  <g id="Сгруппировать_1028" data-name="Сгруппировать 1028" transform="translate(-126.826 -249.206)">
    <path id="Контур_433" data-name="Контур 433" d="M139.026,259.206h-1.211a.6.6,0,1,1,0-1.2h1.211a3.8,3.8,0,1,0,0-7.6h-1.2a.6.6,0,0,1,0-1.2h1.2a5,5,0,1,1,0,10Z" fill="#8a919f"/>
    <path id="Контур_434" data-name="Контур 434" d="M133.023,259.206h-1.2a5,5,0,1,1,0-10h1.2a.6.6,0,1,1,0,1.2h-1.2a3.8,3.8,0,1,0,0,7.6h1.2a.6.6,0,0,1,0,1.2Z" fill="#8a919f"/>
    <path id="Линия_105" data-name="Линия 105" d="M6.4.6H0A.6.6,0,0,1-.6,0,.6.6,0,0,1,0-.6H6.4A.6.6,0,0,1,7,0,.6.6,0,0,1,6.4.6Z" transform="translate(132.226 254.206)" fill="#8a919f"/>
  </g>
</svg>
