<?xml version="1.0" encoding="utf-8"?>
<!-- Generator: Adobe Illustrator 23.0.1, SVG Export Plug-In . SVG Version: 6.00 Build 0)  -->
<svg version="1.1" xmlns="http://www.w3.org/2000/svg" xmlns:xlink="http://www.w3.org/1999/xlink" x="0px" y="0px"
	 viewBox="0 0 16 16" style="enable-background:new 0 0 16 16;" xml:space="preserve">
<style type="text/css">
	.st0{fill:#FF4D5A;}
</style>
<g id="Слой_1">
</g>
<g id="Сгруппировать_159">
	<path id="Контур_70" class="st0" d="M12.8,11c-0.3,0-0.6-0.3-0.6-0.6c0-0.2,0.1-0.3,0.2-0.4l1.8-1.8l-1.8-1.8
		c-0.2-0.3-0.2-0.6,0-0.9c0.2-0.2,0.6-0.2,0.9,0L16,8.1l-2.7,2.7C13.2,10.9,13,11,12.8,11z"/>
	<path id="Линия_17" class="st0" d="M15,8.7H6c-0.3,0-0.6-0.3-0.6-0.6c0,0,0,0,0,0c0-0.3,0.3-0.6,0.6-0.6c0,0,0,0,0,0H15
		c0.3,0,0.6,0.3,0.6,0.6C15.7,8.4,15.4,8.7,15,8.7z"/>
	<path id="Контур_73" class="st0" d="M7.8,15.8c-2,0-4-0.7-5.5-2.1c-3-3.2-3-8.2,0-11.4c1.5-1.4,3.5-2.1,5.5-2.1
		c0.3,0,0.6,0.3,0.6,0.6c0,0.3-0.3,0.6-0.6,0.6C4.2,1.5,1.3,4.4,1.3,8s2.9,6.5,6.5,6.5l0,0c0.3,0,0.6,0.3,0.6,0.6
		C8.4,15.5,8.1,15.8,7.8,15.8z"/>
</g>
</svg>
