<?xml version="1.0" encoding="utf-8"?>
<!-- Generator: Adobe Illustrator 23.0.1, SVG Export Plug-In . SVG Version: 6.00 Build 0)  -->
<svg version="1.1" id="Слой_1" xmlns="http://www.w3.org/2000/svg" xmlns:xlink="http://www.w3.org/1999/xlink" x="0px" y="0px"
	 viewBox="0 0 12 12" style="enable-background:new 0 0 12 12;" xml:space="preserve">
<path d="M1.3,8.2C1.3,8.2,1.3,8.2,1.3,8.2l0,2.5c0,0,0,0,0,0h9.4c0,0,0,0,0,0V8.2c0,0,0,0,0,0H1.3 M1.3,6.9h9.5
	c0.9,0,1.3,0.4,1.3,1.3v2.4c0,1-0.4,1.3-1.3,1.3H1.3C0.4,12,0,11.6,0,10.7V8.2C0,7.3,0.4,6.9,1.3,6.9z"/>
<path d="M1.3,1.3C1.3,1.3,1.3,1.3,1.3,1.3l0,2.5c0,0,0,0,0,0h9.4c0,0,0,0,0,0V1.3c0,0,0,0,0,0H1.3 M1.3,0h9.5C11.6,0,12,0.4,12,1.3
	v2.4c0,1-0.4,1.3-1.3,1.3H1.3C0.4,5.1,0,4.7,0,3.8V1.3C0,0.4,0.4,0,1.3,0z"/>
</svg>
