<svg xmlns="http://www.w3.org/2000/svg" width="17.554" height="13.919" viewBox="0 0 17.554 13.919">
  <g id="Сгруппировать_7965" data-name="Сгруппировать 7965" transform="translate(-4892.348 -3463.834)">
    <path id="Контур_1672" data-name="Контур 1672" d="M4906,3477.753h-8a5.65,5.65,0,0,1,0-11.3h11a.65.65,0,0,1,0,1.3h-11a4.35,4.35,0,0,0,0,8.7h8a.65.65,0,0,1,0,1.3Z" fill="#010101"/>
    <path id="Контур_1673" data-name="Контур 1673" d="M4906.692,3470.253a.65.65,0,0,1-.459-1.11l2.1-2.1-2.1-2.1a.65.65,0,0,1,.919-.919l2.56,2.56a.65.65,0,0,1,0,.919l-2.56,2.56A.648.648,0,0,1,4906.692,3470.253Z" fill="#010101"/>
  </g>
</svg>
