<?xml version="1.0" encoding="utf-8"?>
<!-- Generator: Adobe Illustrator 23.0.1, SVG Export Plug-In . SVG Version: 6.00 Build 0)  -->
<svg version="1.1" id="Слой_1" xmlns="http://www.w3.org/2000/svg" xmlns:xlink="http://www.w3.org/1999/xlink" x="0px" y="0px"
	 viewBox="0 0 6 10" style="enable-background:new 0 0 6 10;" xml:space="preserve">
<style type="text/css">
	.st0{fill:#8A919F;}
</style>
<path id="Прямоугольник_1275" class="st0" d="M1,10L1,10c-0.6,0-1-0.4-1-1l0,0c0-0.6,0.4-1,1-1l0,0c0.6,0,1,0.4,1,1
	l0,0C2,9.6,1.6,10,1,10z"/>
<path id="Прямоугольник_1276" class="st0" d="M1,6L1,6C0.4,6,0,5.6,0,5l0,0c0-0.6,0.4-1,1-1l0,0c0.6,0,1,0.4,1,1l0,0
	C2,5.6,1.6,6,1,6z"/>
<path id="Прямоугольник_1277" class="st0" d="M1,2L1,2C0.4,2,0,1.6,0,1l0,0c0-0.6,0.4-1,1-1l0,0c0.6,0,1,0.4,1,1l0,0
	C2,1.6,1.6,2,1,2z"/>
<path id="Прямоугольник_1278" class="st0" d="M5,10L5,10c-0.6,0-1-0.4-1-1l0,0c0-0.6,0.4-1,1-1l0,0c0.6,0,1,0.4,1,1
	l0,0C6,9.6,5.6,10,5,10z"/>
<path id="Прямоугольник_1279" class="st0" d="M5,6L5,6C4.4,6,4,5.6,4,5l0,0c0-0.6,0.4-1,1-1l0,0c0.6,0,1,0.4,1,1l0,0
	C6,5.6,5.6,6,5,6z"/>
<path id="Прямоугольник_1280" class="st0" d="M5,2L5,2C4.4,2,4,1.6,4,1l0,0c0-0.6,0.4-1,1-1l0,0c0.6,0,1,0.4,1,1l0,0
	C6,1.6,5.6,2,5,2z"/>
</svg>
