<?xml version="1.0" encoding="utf-8"?>
<!-- Generator: Adobe Illustrator 23.0.1, SVG Export Plug-In . SVG Version: 6.00 Build 0)  -->
<svg version="1.1" id="Слой_1" xmlns="http://www.w3.org/2000/svg" xmlns:xlink="http://www.w3.org/1999/xlink" x="0px" y="0px"
	 viewBox="0 0 12 12" style="enable-background:new 0 0 12 12;" xml:space="preserve">
<style type="text/css">
	.st0{fill:#FF4D5A;}
</style>
<path id="Контур_1792" class="st0" d="M7.5,5.1"/>
<path id="Контур_1793" class="st0" d="M12,9.8c0,0.2-0.1,0.4-0.1,0.7c-0.1,0.2-0.2,0.4-0.4,0.6c-0.3,0.3-0.6,0.5-1,0.7
	C10.1,11.9,9.7,12,9.3,12c-0.7,0-1.3-0.2-2-0.4c-0.7-0.3-1.4-0.7-2.1-1.2c-0.3-0.3-0.7-0.5-1-0.8l2-2c0,0,0,0,0,0
	C6.4,7.8,6.7,8,7,8.2c0,0,0.1,0,0.1,0c0,0,0.1,0,0.1,0c0.1,0,0.2,0,0.2-0.1l0.5-0.4c0.1-0.1,0.3-0.2,0.4-0.3
	c0.1-0.1,0.3-0.1,0.4-0.1c0.1,0,0.3,0,0.4,0.1c0.1,0.1,0.3,0.1,0.4,0.2l2,1.4c0.1,0.1,0.3,0.2,0.3,0.4C12,9.5,12,9.6,12,9.8z"/>
<path id="Контур_1794" class="st0" d="M5.3,6.7l-2,2c0,0,0,0,0,0c-0.6-0.6-1.2-1.3-1.7-2c-0.5-0.6-0.9-1.3-1.2-2c0,0,0,0,0,0
	C0.2,4.1,0,3.4,0,2.7c0-0.4,0.1-0.8,0.2-1.2C0.3,1.2,0.5,1,0.8,0.7c0-0.1,0.1-0.1,0.1-0.2C1,0.5,1.1,0.4,1.2,0.3h0
	C1.5,0.1,1.8,0,2.2,0c0.2,0,0.3,0,0.5,0.1C2.8,0.2,2.9,0.3,3,0.4c0,0,0,0,0,0l1.4,2c0.1,0.1,0.2,0.3,0.2,0.4
	c0.1,0.1,0.1,0.2,0.1,0.4c0,0.2,0,0.3-0.1,0.4C4.5,3.8,4.4,3.9,4.3,4L3.8,4.5C3.8,4.6,3.7,4.7,3.7,4.8c0,0,0,0.1,0,0.1
	c0,0,0,0.1,0,0.1C4,5.3,4.2,5.5,4.4,5.8C4.6,6.1,4.9,6.4,5.3,6.7L5.3,6.7z"/>
<path id="Контур_1795" class="st0" d="M11.9,0.1c-0.2-0.2-0.5-0.2-0.7,0L0.1,11.2c-0.2,0.2-0.2,0.5,0,0.7
	c0.2,0.2,0.5,0.2,0.6,0L11.9,0.8C12,0.6,12,0.3,11.9,0.1z"/>
</svg>
