<?xml version="1.0" encoding="utf-8"?>
<!-- Generator: Adobe Illustrator 23.0.1, SVG Export Plug-In . SVG Version: 6.00 Build 0)  -->
<svg version="1.1" id="Слой_1" xmlns="http://www.w3.org/2000/svg" xmlns:xlink="http://www.w3.org/1999/xlink" x="0px" y="0px"
	 viewBox="0 0 21.3 20.2" style="enable-background:new 0 0 21.3 20.2;" xml:space="preserve">
<path d="M16.5,19.4c-0.3,0-0.6-0.1-0.9-0.2l-4-2.3c-0.4,0-0.8,0-1.3-0.1l-1.3-0.2l0.9-0.9c0.6-0.7,1-1.6,1-2.5
	c0-2.3-2.2-4.2-4.9-4.2c-1,0-1.9,0.3-2.8,0.8l-0.9,0.5l-0.1-1c0-0.3,0-0.5,0-0.8C2.3,3.8,6.6,0,11.8,0c5.2,0,9.5,3.8,9.5,8.4
	c0,2.6-1.3,5.1-3.5,6.5l0.3,2.6c0.1,0.9-0.6,1.7-1.5,1.8C16.6,19.4,16.6,19.4,16.5,19.4z M11.7,15.6c0,0,0.1,0,0.1,0H12l4.3,2.4
	c0.1,0,0.2,0.1,0.2,0.1c0.2,0,0.3-0.2,0.3-0.4l-0.4-3.4l0.4-0.2c2-1.2,3.2-3.4,3.2-5.7c0-3.9-3.7-7.1-8.2-7.1c-4.4,0-8,3-8.2,6.8
	c0.8-0.3,1.6-0.5,2.5-0.5c3.4,0,6.1,2.5,6.1,5.5C12.3,14,12.1,14.8,11.7,15.6z"/>
<path d="M3.2,20.2c-0.4,0-0.9-0.2-1.1-0.6C2,19.4,1.9,19.1,2,18.8l0.2-1.5c-1.3-1-2.1-2.5-2.2-4.2c0-1.9,1.1-3.6,2.7-4.6
	c1-0.6,2.2-0.9,3.4-0.9c3.4,0,6.1,2.5,6.1,5.5v0c0,1.3-0.5,2.5-1.4,3.4c-1.2,1.3-2.9,2-4.6,2.1L3.9,20C3.7,20.1,3.4,20.2,3.2,20.2z
	 M6.1,8.9c-1,0-1.9,0.3-2.7,0.8c-1.3,0.7-2,2-2.1,3.5c0,1.3,0.7,2.6,1.9,3.3l0.4,0.2L3.2,19L6,17.3l0.2,0c1.5,0,2.8-0.6,3.8-1.6
	c0.6-0.7,1-1.6,1-2.6C11,10.8,8.8,8.9,6.1,8.9C6.1,8.9,6.1,8.9,6.1,8.9z"/>
</svg>
