<svg xmlns="http://www.w3.org/2000/svg" width="17.022" height="19.5" viewBox="0 0 17.022 19.5">
  <g id="Сгруппировать_867" data-name="Сгруппировать 867" transform="translate(-6928.579 -1800.299)">
    <path id="Эллипс_125" data-name="Эллипс 125" d="M2.8-.75A3.554,3.554,0,1,1-.75,2.8,3.558,3.558,0,0,1,2.8-.75Zm0,5.607A2.054,2.054,0,1,0,.75,2.8,2.056,2.056,0,0,0,2.8,4.857Z" transform="translate(6934.286 1805.722)" fill="#8a919f"/>
    <path id="Контур_257" data-name="Контур 257" d="M6937.088,1800.3a8.842,8.842,0,0,1,5.126,1.6,8.01,8.01,0,0,1,3.147,4.834c1.106,4.884-1.843,8.974-4.511,11.544a5.419,5.419,0,0,1-7.527,0c-2.668-2.572-5.617-6.664-4.5-11.552a8.013,8.013,0,0,1,3.149-4.825A8.838,8.838,0,0,1,6937.088,1800.3Zm0,18a3.9,3.9,0,0,0,2.719-1.1c2.391-2.3,5.041-5.931,4.089-10.133a7.035,7.035,0,0,0-13.617-.01c-.957,4.206,1.692,7.835,4.083,10.14A3.906,3.906,0,0,0,6937.091,1818.3Z" fill="#8a919f"/>
  </g>
</svg>
