<?xml version="1.0" encoding="utf-8"?>
<!-- Generator: Adobe Illustrator 23.0.1, SVG Export Plug-In . SVG Version: 6.00 Build 0)  -->
<svg version="1.1" id="Слой_1" xmlns="http://www.w3.org/2000/svg" xmlns:xlink="http://www.w3.org/1999/xlink" x="0px" y="0px"
	 viewBox="0 0 18.3 20.5" style="enable-background:new 0 0 18.3 20.5;" xml:space="preserve">
<path d="M9.2,8.7c-0.4,0-0.6-0.3-0.6-0.6V4.9c0-0.4,0.3-0.6,0.6-0.6s0.6,0.3,0.6,0.6v3.2C9.8,8.4,9.5,8.7,9.2,8.7z"/>
<path d="M9.2,18.1c-2.5,0-4.9-0.4-7.2-1.2c-0.2-0.1-0.5-0.2-0.8-0.4c-0.6-0.4-1-1-1.1-1.7c-0.1-0.7,0-1.4,0.4-2l1.2-2
	C2,10.3,2.1,9.6,2.2,9l0-2c0-1.9,0.7-3.6,2.1-5c1.3-1.3,3.1-2,5-2c0,0,0,0,0,0h0c3.8,0,7,3.2,7,7v2c0,0.6,0.2,1.3,0.5,1.9l1.2,2
	c0.1,0.2,0.2,0.4,0.3,0.5c0.2,0.7,0.2,1.5-0.1,2.1c-0.3,0.7-0.9,1.2-1.6,1.4C14.1,17.7,11.6,18.1,9.2,18.1z M9.2,1.3
	c-1.5,0-3,0.6-4,1.7C4.1,4,3.5,5.5,3.5,7v2c0,0.9-0.3,1.7-0.7,2.5l-1.2,2c-0.4,0.7-0.3,1.5,0.4,2c0.1,0.1,0.3,0.1,0.4,0.2
	c4.4,1.5,9.3,1.5,13.7,0c0.4-0.1,0.7-0.4,0.8-0.7c0.2-0.4,0.2-0.7,0.1-1.1c0-0.1-0.1-0.2-0.1-0.3l-1.2-2c-0.4-0.8-0.7-1.6-0.7-2.5
	l0-2C14.9,3.9,12.3,1.3,9.2,1.3L9.2,1.3z"/>
<path d="M9.2,20.5C9.1,20.5,9.1,20.5,9.2,20.5c-2.1,0-3.8-1.7-3.8-3.8l1.3,0c0,1.4,1.1,2.5,2.5,2.5c0,0,0,0,0,0
	c0.7,0,1.3-0.3,1.8-0.7c0.5-0.5,0.7-1.1,0.8-1.8l1.3,0c0,1-0.4,2-1.1,2.7C11.1,20.1,10.2,20.5,9.2,20.5z"/>
</svg>
