<?xml version="1.0" encoding="utf-8"?>
<!-- Generator: Adobe Illustrator 23.0.1, SVG Export Plug-In . SVG Version: 6.00 Build 0)  -->
<svg version="1.1" id="Слой_1" xmlns="http://www.w3.org/2000/svg" xmlns:xlink="http://www.w3.org/1999/xlink" x="0px" y="0px"
	 viewBox="0 0 12 14" style="enable-background:new 0 0 12 14;" xml:space="preserve">
<style type="text/css">
	.st0{fill:#8A919F;}
</style>
<path id="Контур_1820" class="st0" d="M11.7,8.4l-0.8-1.3c-0.2-0.4-0.3-0.8-0.3-1.2V4.6C10.6,2.1,8.6,0,6,0S1.4,2.1,1.4,4.6
	l0,0v1.3c0,0.4-0.1,0.8-0.3,1.2L0.3,8.4c-0.5,0.8-0.3,1.9,0.5,2.5C1,11,1.1,11.1,1.3,11.1c0.8,0.2,1.5,0.4,2.3,0.6
	c0.1,0,0.2,0,0.2,0l0.3,0c0.2,0,0.4,0,0.6,0.1c0.4,0,0.9,0.1,1.3,0.1s0.9,0,1.3-0.1c0.2,0,0.3,0,0.5,0c0.1,0,0.2,0,0.4,0
	c0.1,0,0.2,0,0.2,0c0.8-0.1,1.6-0.3,2.3-0.6c1-0.3,1.5-1.4,1.2-2.3C11.9,8.6,11.8,8.5,11.7,8.4L11.7,8.4z M6.5,5.6
	c0,0.3-0.2,0.5-0.5,0.6c-0.3,0-0.5-0.2-0.6-0.5c0,0,0,0,0,0V3.4c0-0.3,0.3-0.5,0.6-0.5c0.3,0,0.5,0.2,0.5,0.5V5.6z"/>
<path id="Контур_1821" class="st0" d="M8,12.6c-0.4,1.1-1.6,1.7-2.7,1.3c-0.3-0.1-0.6-0.3-0.8-0.5c-0.2-0.2-0.4-0.5-0.5-0.8
	l0.3,0c0.2,0,0.3,0,0.5,0.1c0.4,0,0.8,0.1,1.2,0.1s0.8,0,1.2-0.1c0.1,0,0.3,0,0.4,0C7.8,12.6,7.9,12.6,8,12.6z"/>
</svg>
