<svg xmlns="http://www.w3.org/2000/svg" width="17.2" height="17.2" viewBox="0 0 17.2 17.2">
  <g id="Сгруппировать_1029" data-name="Сгруппировать 1029" transform="translate(-126.826 -301.4)">
    <path id="Эллипс_29" data-name="Эллипс 29" d="M2.4-.6a3,3,0,1,1-3,3A3,3,0,0,1,2.4-.6Zm0,4.8A1.8,1.8,0,1,0,.6,2.4,1.8,1.8,0,0,0,2.4,4.2Z" transform="translate(138.626 302)" fill="#8a919f"/>
    <path id="Линия_106" data-name="Линия 106" d="M4,.6H0A.6.6,0,0,1-.6,0,.6.6,0,0,1,0-.6H4a.6.6,0,0,1,.6.6A.6.6,0,0,1,4,.6Z" transform="translate(131.426 310.8)" fill="#8a919f"/>
    <path id="Линия_107" data-name="Линия 107" d="M7.2.6H0A.6.6,0,0,1-.6,0,.6.6,0,0,1,0-.6H7.2a.6.6,0,0,1,.6.6A.6.6,0,0,1,7.2.6Z" transform="translate(131.426 314)" fill="#8a919f"/>
    <path id="Контур_435" data-name="Контур 435" d="M137.826,318.6h-4.8c-2.216,0-3.717-.469-4.724-1.476s-1.476-2.508-1.476-4.724v-4.8c0-2.216.469-3.717,1.476-4.724s2.508-1.476,4.724-1.476h4a.6.6,0,1,1,0,1.2h-4c-1.877,0-3.109.357-3.876,1.124s-1.124,2-1.124,3.876v4.8c0,1.877.357,3.109,1.124,3.876s2,1.124,3.876,1.124h4.8c1.877,0,3.109-.357,3.876-1.124s1.124-2,1.124-3.876v-4a.6.6,0,0,1,1.2,0v4c0,2.216-.469,3.717-1.476,4.724S140.042,318.6,137.826,318.6Z" fill="#8a919f"/>
  </g>
</svg>
