<svg xmlns="http://www.w3.org/2000/svg" width="13" height="14.334" viewBox="0 0 13 14.334">
  <g id="Сгруппировать_968" data-name="Сгруппировать 968" transform="translate(-3270.839 -852.741)">
    <g id="Сгруппировать_967" data-name="Сгруппировать 967">
      <path id="Контур_375" data-name="Контур 375" d="M3274.673,852.741h5.333a3.79,3.79,0,0,1,2.908,1.077,3.914,3.914,0,0,1,.925,2.757v6.666a3.914,3.914,0,0,1-.925,2.757,3.79,3.79,0,0,1-2.908,1.077h-5.333a3.791,3.791,0,0,1-2.909-1.077,3.913,3.913,0,0,1-.925-2.757v-6.666a3.913,3.913,0,0,1,.925-2.757A3.791,3.791,0,0,1,3274.673,852.741Zm5.333,13.334a2.847,2.847,0,0,0,2.175-.757,2.963,2.963,0,0,0,.658-2.077v-6.666a2.963,2.963,0,0,0-.658-2.077,2.847,2.847,0,0,0-2.175-.757h-5.333a2.848,2.848,0,0,0-2.176.757,2.962,2.962,0,0,0-.658,2.077v6.666a2.962,2.962,0,0,0,.658,2.077,2.848,2.848,0,0,0,2.176.757Z" fill="#009eff"/>
      <path id="Контур_376" data-name="Контур 376" d="M3281.673,858.075h-1.334a1.836,1.836,0,0,1-1.833-1.834v-1.333a.5.5,0,0,1,1,0v1.333a.835.835,0,0,0,.833.834h1.334a.5.5,0,0,1,0,1Z" fill="#009eff"/>
      <path id="Линия_91" data-name="Линия 91" d="M2.667.5H0A.5.5,0,0,1-.5,0,.5.5,0,0,1,0-.5H2.667a.5.5,0,0,1,.5.5A.5.5,0,0,1,2.667.5Z" transform="translate(3274.673 860.575)" fill="#009eff"/>
      <path id="Линия_92" data-name="Линия 92" d="M5.333.5H0A.5.5,0,0,1-.5,0,.5.5,0,0,1,0-.5H5.333a.5.5,0,0,1,.5.5A.5.5,0,0,1,5.333.5Z" transform="translate(3274.673 863.241)" fill="#009eff"/>
    </g>
  </g>
</svg>
