<svg xmlns="http://www.w3.org/2000/svg" width="17.3" height="17.696" viewBox="0 0 17.3 17.696">
  <g id="Сгруппировать_1068" data-name="Сгруппировать 1068" transform="translate(-886.426 -327.152)">
    <path id="Контур_442" data-name="Контур 442" d="M899.372,344.848H890.78a3.825,3.825,0,0,1-2.921-1.109,4.044,4.044,0,0,1-1-2.577l-.426-6.769a3.681,3.681,0,0,1,1-2.782,3.747,3.747,0,0,1,2.724-1.18.7.7,0,0,0,.609-.374l.587-1.183a3.33,3.33,0,0,1,2.788-1.722h1.877a3.366,3.366,0,0,1,2.777,1.718l.59,1.187a.7.7,0,0,0,.608.374,3.749,3.749,0,0,1,2.726,1.18,3.681,3.681,0,0,1,1,2.783l-.426,6.771a4.076,4.076,0,0,1-1,2.574A3.819,3.819,0,0,1,899.372,344.848Zm-5.23-16.4a2.063,2.063,0,0,0-1.626,1l-.588,1.184,0,.009a1.984,1.984,0,0,1-1.766,1.082,2.426,2.426,0,0,0-2.425,2.579l.426,6.773a2.339,2.339,0,0,0,2.622,2.465h8.592A2.347,2.347,0,0,0,902,341.083l.426-6.772a2.427,2.427,0,0,0-2.426-2.58,1.984,1.984,0,0,1-1.765-1.082l0-.009-.591-1.188a2.051,2.051,0,0,0-1.615-1Z"/>
    <path id="Контур_443" data-name="Контур 443" d="M896.306,333.371h-2.459a.65.65,0,1,1,0-1.3h2.459a.65.65,0,1,1,0,1.3Z"/>
    <path id="Контур_444" data-name="Контур 444" d="M895.076,341.569a3.314,3.314,0,1,1,3.315-3.314A3.318,3.318,0,0,1,895.076,341.569Zm0-5.329a2.015,2.015,0,1,0,2.015,2.015A2.017,2.017,0,0,0,895.076,336.24Z"/>
  </g>
</svg>
