<?xml version="1.0" encoding="utf-8"?>
<!-- Generator: Adobe Illustrator 23.0.1, SVG Export Plug-In . SVG Version: 6.00 Build 0)  -->
<svg version="1.1" id="Слой_1" xmlns="http://www.w3.org/2000/svg" xmlns:xlink="http://www.w3.org/1999/xlink" x="0px" y="0px"
	 viewBox="0 0 20.3 21" style="enable-background:new 0 0 20.3 21;" xml:space="preserve">
<g id="Сгруппировать_702" transform="translate(-1568.488 -2984.285)">
	<path d="M1575.9,2994.4C1575.9,2994.4,1575.9,2994.4,1575.9,2994.4c-0.1,0-0.2,0-0.3,0c-1.4,0-2.7-0.6-3.6-1.6s-1.4-2.3-1.4-3.6
		c0-1.4,0.6-2.6,1.6-3.5c1-0.9,2.3-1.4,3.6-1.4c2.8,0.1,5,2.5,4.9,5.3C1580.7,2992.2,1578.6,2994.3,1575.9,2994.4
		C1575.9,2994.4,1575.9,2994.4,1575.9,2994.4z M1575.7,2985.6c-2,0-3.7,1.6-3.8,3.6c0,1,0.3,2,1,2.7c0.7,0.7,1.6,1.2,2.6,1.2
		c0.1,0,0.2,0,0.3,0c1.9-0.1,3.5-1.7,3.6-3.6c0.1-2.1-1.5-3.8-3.6-3.9C1575.8,2985.6,1575.8,2985.6,1575.7,2985.6z"/>
	<path d="M1583,2994.5c-0.3,0-0.6-0.2-0.6-0.6c0-0.4,0.2-0.7,0.6-0.7c0.1,0,0.3,0,0.4,0c1.4-0.1,2.6-1.3,2.6-2.8
		c0-1.6-1.3-2.8-2.8-2.8c0,0,0,0,0,0c-0.4,0-0.6-0.3-0.7-0.6c0-0.4,0.3-0.7,0.6-0.7c0,0,0,0,0,0c2.3,0,4.1,1.8,4.1,4.1
		c0,2.2-1.7,4.1-4,4.1C1583.1,2994.5,1583.1,2994.5,1583,2994.5C1583,2994.5,1583,2994.5,1583,2994.5z"/>
	<path d="M1575.9,3005.3c-1.8,0-3.7-0.5-5.3-1.5c-1.4-0.9-2.1-2.1-2.1-3.5c0-1.3,0.7-2.6,2.1-3.5c0,0,0,0,0,0
		c3.3-1.9,7.3-1.9,10.6,0c1.4,0.9,2.1,2.1,2.1,3.5c0,1.3-0.7,2.6-2.1,3.5C1579.6,3004.8,1577.7,3005.3,1575.9,3005.3z M1571.3,2998
		c-1,0.7-1.5,1.5-1.5,2.4s0.5,1.7,1.5,2.4c2.8,1.7,6.4,1.7,9.3,0c0.9-0.6,1.5-1.5,1.5-2.4c0-0.9-0.5-1.7-1.5-2.4
		C1577.7,2996.3,1574.1,2996.3,1571.3,2998z"/>
	<path d="M1585,3003.5c-0.3,0-0.6-0.2-0.6-0.5c-0.1-0.4,0.2-0.7,0.5-0.8c0.6-0.1,1.2-0.4,1.7-0.7c0.9-0.6,1.2-1.7,0.6-2.6
		c-0.1-0.2-0.3-0.4-0.6-0.6c-0.5-0.4-1.1-0.6-1.7-0.8c-0.4-0.1-0.6-0.4-0.5-0.8c0.1-0.4,0.4-0.6,0.8-0.5c0.8,0.2,1.5,0.5,2.2,1
		c0.3,0.2,0.7,0.6,0.9,0.9c0.9,1.5,0.5,3.4-1,4.4c-0.6,0.5-1.4,0.8-2.2,1C1585.1,3003.5,1585.1,3003.5,1585,3003.5z"/>
</g>
</svg>
