<?xml version="1.0" encoding="utf-8"?>
<!-- Generator: Adobe Illustrator 23.0.1, SVG Export Plug-In . SVG Version: 6.00 Build 0)  -->
<svg version="1.1" id="Слой_1" xmlns="http://www.w3.org/2000/svg" xmlns:xlink="http://www.w3.org/1999/xlink" x="0px" y="0px"
	 viewBox="0 0 20.3 20.3" style="enable-background:new 0 0 20.3 20.3;" xml:space="preserve">
<style type="text/css">
	.st0{fill:none;stroke:#000000;stroke-width:1.3;stroke-linecap:round;stroke-linejoin:round;}
</style>
<path id="Контур_645" class="st0" d="M12.5,8.7"/>
<path id="Контур_646" class="st0" d="M19.6,16.2c0,0.4-0.1,0.7-0.2,1c-0.2,0.4-0.4,0.7-0.6,1c-0.4,0.5-1,0.9-1.6,1.1
	c-0.6,0.2-1.2,0.4-1.9,0.4c-1.1,0-2.1-0.3-3.1-0.7c-1.2-0.5-2.3-1.1-3.3-1.9c-1.1-0.8-2.1-1.7-3.1-2.7c-1-1-1.8-2-2.7-3.1
	c-0.7-1-1.4-2.1-1.9-3.2C0.9,7.1,0.7,6,0.6,5c0-0.6,0.1-1.2,0.3-1.8C1.2,2.5,1.6,2,2.1,1.5c0.5-0.6,1.2-0.9,2-0.9
	c0.3,0,0.5,0.1,0.8,0.2c0.3,0.1,0.5,0.3,0.6,0.5l2.2,3.1C7.8,4.7,7.9,4.9,8,5.1c0.1,0.2,0.1,0.4,0.1,0.6c0,0.2-0.1,0.5-0.2,0.7
	C7.8,6.6,7.7,6.9,7.4,7.1L6.7,7.8C6.6,7.9,6.6,8,6.6,8.2c0,0.1,0,0.1,0,0.2c0,0.1,0.1,0.1,0.1,0.2C6.9,9,7.2,9.4,7.6,9.8
	c0.4,0.5,0.9,1,1.4,1.5c0.5,0.5,1,1,1.5,1.4c0.4,0.3,0.8,0.6,1.2,0.9c0,0,0.1,0,0.2,0.1c0.1,0,0.2,0,0.2,0c0.1,0,0.3-0.1,0.4-0.2
	l0.7-0.7c0.2-0.2,0.4-0.4,0.7-0.5c0.2-0.1,0.4-0.2,0.7-0.2c0.2,0,0.4,0,0.6,0.1c0.2,0.1,0.5,0.2,0.7,0.4l3.1,2.2
	c0.2,0.1,0.4,0.4,0.5,0.6C19.6,15.7,19.6,15.9,19.6,16.2z"/>
<path id="Контур_647" class="st0" d="M16.3,7.3c-0.1-0.8-0.5-1.6-1.1-2.2C14.7,4.5,13.9,4.1,13,4"/>
<path id="Контур_648" class="st0" d="M19.7,7.3c0-3.7-3-6.6-6.7-6.6l0,0"/>
</svg>
