<svg xmlns="http://www.w3.org/2000/svg" width="16" height="22.745" viewBox="0 0 16 22.745">
  <g id="Сгруппировать_2686" data-name="Сгруппировать 2686" transform="translate(-2019 -267.493)">
    <path id="Контур_653" data-name="Контур 653" d="M2027,267.493a5.393,5.393,0,0,0-.135,10.785,1.355,1.355,0,0,1,.255,0l.055,0h.018a5.4,5.4,0,0,0-.193-10.787Z"/>
    <path id="Контур_654" data-name="Контур 654" d="M2032.774,281.316a11.282,11.282,0,0,0-11.546,0h0a4.125,4.125,0,0,0,0,7.324,11.231,11.231,0,0,0,11.548,0,4.125,4.125,0,0,0,0-7.324Zm-3.122,2.732-2.869,2.869a.706.706,0,0,1-1,0l-1.434-1.434a.708.708,0,0,1,1-1l.934.934,2.368-2.369a.708.708,0,0,1,1,1Z" fill="#010101"/>
  </g>
</svg>
