<?xml version="1.0" encoding="utf-8"?>
<!-- Generator: Adobe Illustrator 23.0.1, SVG Export Plug-In . SVG Version: 6.00 Build 0)  -->
<svg version="1.1" id="Слой_1" xmlns="http://www.w3.org/2000/svg" xmlns:xlink="http://www.w3.org/1999/xlink" x="0px" y="0px"
	 viewBox="0 0 18.3 19.4" style="enable-background:new 0 0 18.3 19.4;" xml:space="preserve">
<style type="text/css">
	.st0{fill:#010101;}
</style>
<path id="Контур_1670" class="st0" d="M13.6,6h-9C4.3,6,4,5.7,4,5.4V3.5C4,1.1,5.1,0,7.5,0h3.3c2.4,0,3.5,1.1,3.5,3.5v1.9
	C14.3,5.7,14,6,13.6,6z M5.3,4.7H13V3.5c0-1.7-0.5-2.2-2.2-2.2H7.5c-1.7,0-2.2,0.5-2.2,2.2L5.3,4.7z"/>
<path id="Контур_1671" class="st0" d="M14.8,16.4c-0.4,0-0.6-0.3-0.6-0.6c0-0.4,0.3-0.7,0.6-0.7c1.5,0,2.2-0.7,2.2-2.2V8.2
	C17,6.7,16.3,6,14.8,6H3.5C2,6,1.3,6.7,1.3,8.2v4.7c0,1.5,0.7,2.2,2.2,2.2c0.4,0,0.6,0.3,0.6,0.7c0,0.4-0.3,0.6-0.6,0.6
	c-1.7,0.2-3.3-1-3.5-2.8c0-0.2,0-0.5,0-0.7V8.2c-0.2-1.7,1-3.3,2.8-3.5c0.2,0,0.5,0,0.7,0h11.3c1.7-0.2,3.3,1,3.5,2.8
	c0,0.2,0,0.5,0,0.7v4.7c0.2,1.7-1,3.3-2.8,3.5C15.3,16.4,15.1,16.4,14.8,16.4z"/>
<path id="Линия_614" class="st0" d="M7.3,9.8H4.4c-0.4,0-0.7-0.3-0.7-0.6c0,0,0,0,0,0c0-0.4,0.3-0.6,0.7-0.6c0,0,0,0,0,0h2.8
	c0.4,0,0.6,0.3,0.6,0.6S7.6,9.8,7.3,9.8z"/>
<path id="Прямоугольник_1138" class="st0" d="M5.9,13.1h6.5c1.4,0,2.4,1.1,2.4,2.4v1.4c0,1.4-1.1,2.4-2.4,2.4H5.9
	c-1.4,0-2.4-1.1-2.5-2.4v-1.4C3.4,14.2,4.5,13.1,5.9,13.1z M12.4,18.1c0.6,0,1.1-0.5,1.1-1.1v-1.4c0-0.6-0.5-1.1-1.1-1.2H5.9
	c-0.6,0-1.2,0.5-1.2,1.2v1.4c0,0.6,0.5,1.1,1.2,1.1H12.4z"/>
</svg>
