<?xml version="1.0" encoding="utf-8"?>
<!-- Generator: Adobe Illustrator 23.0.1, SVG Export Plug-In . SVG Version: 6.00 Build 0)  -->
<svg version="1.1" id="Слой_1" xmlns="http://www.w3.org/2000/svg" xmlns:xlink="http://www.w3.org/1999/xlink" x="0px" y="0px"
	 viewBox="0 0 19.3 19.4" style="enable-background:new 0 0 19.3 19.4;" xml:space="preserve">
<style type="text/css">
	.st0{fill:#FFFFFF;}
</style>
<path class="st0" d="M9.7,19.4c-0.4,0-0.7-0.1-1-0.3c-0.2-0.2-0.4-0.4-0.6-0.6l-1.3-1.8c0,0-0.1-0.1-0.2-0.1H6c-3.7,0-6-1-6-6.1V6
	c0-4,2.1-6,6-6h7.2c4,0,6.1,2.1,6.1,6v4.5c0,4-2.1,6-6.1,6.1h-0.5c-0.1,0-0.2,0-0.2,0.1l-1.3,1.8C10.9,19,10.3,19.4,9.7,19.4z
	 M6,1.3C2.8,1.3,1.3,2.8,1.3,6v4.5c0,4.1,1.5,4.8,4.8,4.8l0.5,0c0.5,0,0.9,0.2,1.2,0.6l1.4,1.8c0.1,0.1,0.1,0.2,0.2,0.2
	c0.3,0.2,0.7,0.1,0.9-0.2l1.4-1.8c0.3-0.4,0.8-0.6,1.2-0.6h0.5c3.2,0,4.8-1.5,4.8-4.8V6c0-3.2-1.5-4.7-4.8-4.7H6z"/>
<path class="st0" d="M12.2,9.5h-5c-0.4,0-0.6-0.3-0.6-0.6s0.3-0.6,0.6-0.6h5c0.4,0,0.7,0.3,0.7,0.6S12.5,9.5,12.2,9.5z"/>
<path class="st0" d="M9.6,12C9.3,12,9,11.7,9,11.3v-5C9,6,9.3,5.7,9.6,5.7s0.6,0.3,0.6,0.6v5C10.3,11.7,10,12,9.6,12z"/>
</svg>
