<?xml version="1.0" encoding="utf-8"?>
<!-- Generator: Adobe Illustrator 23.0.1, SVG Export Plug-In . SVG Version: 6.00 Build 0)  -->
<svg version="1.1" id="Слой_1" xmlns="http://www.w3.org/2000/svg" xmlns:xlink="http://www.w3.org/1999/xlink" x="0px" y="0px"
	 viewBox="0 0 19.6 19.8" style="enable-background:new 0 0 19.6 19.8;" xml:space="preserve">
<style type="text/css">
	.st0{fill:none;stroke:#000000;stroke-width:1.3;stroke-linecap:round;stroke-linejoin:round;}
</style>
<path id="Контур_639" class="st0" d="M14.5,2.6l-0.1,3.4c0,0.5,0.3,1,0.7,1.4l2.3,1.7c1.4,1.1,1.2,2.4-0.5,3L13.9,13
	c-0.5,0.2-1,0.6-1.1,1.2L12,16.9c-0.6,2.1-1.9,2.3-3.1,0.5l-1.6-2.6C7,14.3,6.4,14,5.8,14l-3,0.2C0.6,14.2,0,13,1.4,11.3l1.8-2.1
	c0.4-0.5,0.5-1,0.3-1.6L2.6,4.7C2.1,3,3.1,2,4.8,2.6l2.7,0.9C8,3.6,8.5,3.5,9,3.2l2.8-2C13.3,0.1,14.5,0.7,14.5,2.6z"/>
<path id="Контур_640" class="st0" d="M18.7,18.8l-2.8-2.8"/>
</svg>
