<?xml version="1.0" encoding="utf-8"?>
<!-- Generator: Adobe Illustrator 23.0.1, SVG Export Plug-In . SVG Version: 6.00 Build 0)  -->
<svg version="1.1" id="Слой_1" xmlns="http://www.w3.org/2000/svg" xmlns:xlink="http://www.w3.org/1999/xlink" x="0px" y="0px"
	 viewBox="0 0 14 11.9" style="enable-background:new 0 0 14 11.9;" xml:space="preserve">
<style type="text/css">
	.st0{fill:#8A919F;}
</style>
<path id="Контур_1790" class="st0" d="M12.6,9.2c-0.3,0-0.5-0.2-0.5-0.5c0-0.1,0-0.2,0.1-0.3c1.1-1.5,1.1-3.4,0-4.9
	C12,3.3,12,2.9,12.3,2.8c0.2-0.2,0.5-0.1,0.7,0.1c1.4,1.8,1.4,4.3,0,6.1C12.9,9.1,12.7,9.2,12.6,9.2z"/>
<path id="Контур_1791" class="st0" d="M8.8,0.3C7.9-0.2,6.8,0,6,0.6L4,2.8C3.9,2.9,3.7,3,3.6,3H1.7C0.8,3,0,3.7,0,4.7v0v2.4
	c0,1,0.8,1.7,1.7,1.7l0,0h1.8c0.2,0,0.3,0,0.5,0.1l2,2.3c0.5,0.3,1.1,0.5,1.8,0.6c0.4,0,0.7-0.1,1-0.3c0.8-0.6,1.3-1.5,1.2-2.5V2.8
	C10.1,1.8,9.6,0.8,8.8,0.3z"/>
</svg>
