<?xml version="1.0" encoding="utf-8"?>
<!-- Generator: Adobe Illustrator 23.0.1, SVG Export Plug-In . SVG Version: 6.00 Build 0)  -->
<svg version="1.1" id="Слой_1" xmlns="http://www.w3.org/2000/svg" xmlns:xlink="http://www.w3.org/1999/xlink" x="0px" y="0px"
	 viewBox="0 0 19.6 19.8" style="enable-background:new 0 0 19.6 19.8;" xml:space="preserve">
<path d="M10.5,19.3c-0.6,0-1.4-0.3-2.2-1.5l-1.6-2.6c-0.2-0.3-0.6-0.5-0.9-0.5l-3,0.2c0,0,0,0,0,0c-1.8,0-2.4-0.6-2.7-1.2
	c-0.3-0.5-0.3-1.5,0.7-2.8l1.8-2.1C3,8.5,3,8.2,2.9,7.8L2,4.9c-0.3-1.1-0.1-2,0.5-2.6C3,1.7,4,1.6,5,2l2.7,0.9c0.3,0,0.6,0,1-0.2
	l2.8-2C12.7-0.2,13.6,0,14,0.2c0.4,0.2,1.1,0.8,1.1,2.4c0,0,0,0,0,0L15,6c0,0.3,0.2,0.6,0.5,0.9l2.2,1.6c0.9,0.7,1.3,1.5,1.2,2.3
	c-0.1,0.8-0.8,1.4-1.8,1.8l-3,0.9c-0.1,0-0.6,0.3-0.6,0.7l-0.8,2.8c-0.5,1.6-1.3,2.1-1.9,2.2C10.7,19.3,10.6,19.3,10.5,19.3z
	 M5.8,13.4c0.9,0,1.7,0.4,2.1,1.1l1.6,2.6c0.5,0.7,0.9,0.9,1.1,0.9c0.2,0,0.6-0.4,0.8-1.2l0.8-2.7c0.1-0.7,0.7-1.3,1.5-1.6l3.1-0.9
	c0.5-0.2,0.9-0.5,1-0.8c0-0.3-0.2-0.7-0.7-1.1l-2.3-1.7c-0.6-0.6-1-1.3-1-1.9l0.1-3.4c0-0.6-0.2-1.1-0.4-1.2c-0.3-0.1-0.7,0-1.2,0.4
	l-2.8,2C8.7,4.1,8,4.3,7.4,4.1L4.6,3.2C4,3,3.6,3,3.3,3.3C3.1,3.5,3.1,3.9,3.2,4.5l0.9,2.9c0.3,0.8,0.1,1.5-0.4,2.2l-1.8,2.1
	c-0.6,0.7-0.7,1.2-0.6,1.4c0.1,0.2,0.5,0.5,1.5,0.5L5.8,13.4C5.8,13.4,5.8,13.4,5.8,13.4z M14.5,2.6L14.5,2.6L14.5,2.6z"/>
<path d="M18.7,19.5c-0.2,0-0.3-0.1-0.5-0.2l-2.8-2.8c-0.3-0.3-0.3-0.7,0-0.9s0.7-0.3,0.9,0l2.8,2.8c0.3,0.3,0.3,0.7,0,0.9
	C19,19.4,18.9,19.5,18.7,19.5z"/>
</svg>
