<?xml version="1.0" encoding="utf-8"?>
<!-- Generator: Adobe Illustrator 23.0.1, SVG Export Plug-In . SVG Version: 6.00 Build 0)  -->
<svg version="1.1" id="Слой_1" xmlns="http://www.w3.org/2000/svg" xmlns:xlink="http://www.w3.org/1999/xlink" x="0px" y="0px"
	 viewBox="0 0 10 9.6" style="enable-background:new 0 0 10 9.6;" xml:space="preserve">
<style type="text/css">
	.st0{fill:#D7DDE0;}
</style>
<path id="Контур_1825" class="st0" d="M7.6,9.6c-0.1,0-0.2,0-0.3-0.1L5.1,8.3c0,0-0.1,0-0.1,0L2.7,9.5c-0.4,0.2-0.8,0.1-1-0.3
	C1.6,9,1.6,8.9,1.6,8.7l0.4-2.5c0,0,0-0.1,0-0.1L0.2,4.4c-0.3-0.3-0.3-0.8,0-1.1c0.1-0.1,0.3-0.2,0.4-0.2l2.5-0.4c0,0,0.1,0,0.1-0.1
	l1.1-2.2C4.5,0,5-0.1,5.3,0.1c0.1,0.1,0.3,0.2,0.3,0.3l1.1,2.2c0,0,0.1,0.1,0.1,0.1l2.5,0.4c0.4,0.1,0.7,0.4,0.6,0.8
	c0,0.2-0.1,0.3-0.2,0.4L8,6.1c0,0-0.1,0.1,0,0.1l0.4,2.5c0.1,0.4-0.2,0.8-0.6,0.9C7.7,9.6,7.7,9.6,7.6,9.6L7.6,9.6z"/>
</svg>
