<?xml version="1.0" encoding="utf-8"?>
<!-- Generator: Adobe Illustrator 23.0.1, SVG Export Plug-In . SVG Version: 6.00 Build 0)  -->
<svg version="1.1" id="Слой_1" xmlns="http://www.w3.org/2000/svg" xmlns:xlink="http://www.w3.org/1999/xlink" x="0px" y="0px"
	 viewBox="0 0 17.3 17.4" style="enable-background:new 0 0 17.3 17.4;" xml:space="preserve">
<style type="text/css">
	.st0{fill:#75769A;}
</style>
<path class="st0" d="M2.8,17.4c-1,0-1.6-0.3-2-0.7c-0.8-0.8-1.3-2.4,0.4-6L2,9.1c0.1-0.3,0.1-0.6,0-0.9L1.2,6.7
	c-1.8-3.5-1.2-5.2-0.4-6c0.8-0.8,2.5-1.3,6,0.4L14.4,5c1.9,0.9,2.9,2.3,2.9,3.7c0,1.4-1,2.8-2.9,3.7l-7.7,3.8
	C5,17.1,3.7,17.4,2.8,17.4z M2.8,1.3c-0.5,0-0.9,0.1-1.1,0.4C1,2.3,1.3,4,2.4,6.2l0.8,1.6c0.3,0.7,0.3,1.4,0,2l-0.8,1.6
	c-1.1,2.2-1.3,3.8-0.7,4.5s2.3,0.4,4.5-0.7l7.6-3.8c1.4-0.7,2.2-1.6,2.2-2.5c0-0.9-0.8-1.8-2.2-2.5L6.2,2.4c0,0,0,0,0,0
	C4.8,1.7,3.6,1.3,2.8,1.3z"/>
<path class="st0" d="M7.6,9.4H2.8c-0.4,0-0.6-0.3-0.6-0.6s0.3-0.6,0.6-0.6h4.8c0.4,0,0.6,0.3,0.6,0.6S8,9.4,7.6,9.4z"/>
</svg>
