<?xml version="1.0" encoding="utf-8"?>
<!-- Generator: Adobe Illustrator 23.0.1, SVG Export Plug-In . SVG Version: 6.00 Build 0)  -->
<svg version="1.1" id="Слой_1" xmlns="http://www.w3.org/2000/svg" xmlns:xlink="http://www.w3.org/1999/xlink" x="0px" y="0px"
	 viewBox="0 0 15.6 15.6" style="enable-background:new 0 0 15.6 15.6;" xml:space="preserve">
<path d="M6.6,13.1C2.9,13.1,0,10.2,0,6.6S2.9,0,6.6,0s6.6,2.9,6.6,6.6S10.2,13.1,6.6,13.1z M6.6,1.3c-2.9,0-5.3,2.4-5.3,5.3
	s2.4,5.3,5.3,5.3s5.3-2.4,5.3-5.3S9.5,1.3,6.6,1.3z"/>
<path d="M14.7,15.3c-0.2,0-0.3-0.1-0.5-0.2l-2.8-2.8c-0.3-0.3-0.3-0.7,0-0.9s0.7-0.3,0.9,0l2.8,2.8c0.3,0.3,0.3,0.7,0,0.9
	C15,15.2,14.8,15.3,14.7,15.3z"/>
</svg>
