<?xml version="1.0" encoding="utf-8"?>
<!-- Generator: Adobe Illustrator 23.0.1, SVG Export Plug-In . SVG Version: 6.00 Build 0)  -->
<svg version="1.1" id="Слой_1" xmlns="http://www.w3.org/2000/svg" xmlns:xlink="http://www.w3.org/1999/xlink" x="0px" y="0px"
	 viewBox="0 0 16.3 14.1" style="enable-background:new 0 0 16.3 14.1;" xml:space="preserve">
<style type="text/css">
	.st0{fill:#75769A;}
</style>
<path id="Контур_1133" class="st0" d="M11.9,14H4.4c-0.4,0-0.7-0.3-0.7-0.6s0.3-0.7,0.6-0.7c0,0,0,0,0,0h7.5
	c2.1,0,3.1-1,3.1-3.1V4.4c0-2.1-1-3.1-3.1-3.1H4.4c-2.1,0-3.1,1-3.1,3.1C1.3,4.8,1,5,0.7,5S0,4.8,0,4.4C0,1.6,1.6,0,4.4,0h7.5
	c2.8,0,4.4,1.6,4.4,4.4v5.3C16.3,12.4,14.7,14,11.9,14z"/>
<path id="Контур_1134" class="st0" d="M8.2,7.8c-0.7,0-1.3-0.2-1.8-0.6L4,5.3C3.7,5.1,3.7,4.6,3.9,4.4S4.5,4,4.8,4.3l0,0
	l2.3,1.9c0.6,0.4,1.4,0.4,2,0l2.3-1.9c0.3-0.2,0.7-0.2,0.9,0.1s0.2,0.7-0.1,0.9L10,7.2C9.4,7.6,8.8,7.8,8.2,7.8z"/>
<path id="Линия_410" class="st0" d="M5.2,11H0.7C0.3,11,0,10.8,0,10.4c0,0,0,0,0,0C0,10,0.3,9.7,0.7,9.7c0,0,0,0,0,0h4.5
	c0.4,0,0.7,0.3,0.7,0.6c0,0,0,0,0,0C5.8,10.8,5.5,11,5.2,11L5.2,11z"/>
<path id="Линия_411" class="st0" d="M2.9,8H0.7C0.3,8,0,7.8,0,7.4c0,0,0,0,0,0C0,7,0.3,6.7,0.7,6.7c0,0,0,0,0,0h2.3
	c0.4,0,0.7,0.3,0.7,0.7c0,0,0,0,0,0C3.6,7.8,3.3,8,2.9,8C2.9,8,2.9,8,2.9,8z"/>
</svg>
