<?xml version="1.0" encoding="utf-8"?>
<!-- Generator: Adobe Illustrator 23.0.1, SVG Export Plug-In . SVG Version: 6.00 Build 0)  -->
<svg version="1.1" id="Слой_1" xmlns="http://www.w3.org/2000/svg" xmlns:xlink="http://www.w3.org/1999/xlink" x="0px" y="0px"
	 viewBox="0 0 17.3 16.9" style="enable-background:new 0 0 17.3 16.9;" xml:space="preserve">
<style type="text/css">
	.st0{fill:#75769A;}
</style>
<path class="st0" d="M9.2,16.3c-1,0-1.9-0.4-2.7-1.1c-0.7-0.7-1.1-1.7-1.1-2.7c0-1,0.4-2,1.1-2.7l2.2-2.2c0.3-0.3,0.7-0.3,0.9,0
	s0.3,0.7,0,0.9l-2.2,2.2c-0.5,0.5-0.7,1.1-0.7,1.7c0,0.7,0.3,1.3,0.7,1.7c1,1,2.5,1,3.5,0c0,0,0,0,0,0l3.5-3.5
	c2.2-2.2,2.2-5.7,0-7.9c-2.2-2.2-5.7-2.2-7.9,0L2.7,6.7C1.8,7.6,1.3,8.8,1.3,10c0,1.3,0.5,2.4,1.4,3.3c0.3,0.3,0.3,0.7,0,0.9
	s-0.7,0.3-0.9,0C0.6,13.1,0,11.6,0,10s0.6-3.1,1.8-4.2L5.5,2c2.7-2.7,7.1-2.7,9.7,0c2.7,2.7,2.7,7.1,0,9.7l-3.4,3.4c0,0,0,0,0,0
	C11.1,16,10.1,16.3,9.2,16.3z"/>
</svg>
