<?xml version="1.0" encoding="utf-8"?>
<!-- Generator: Adobe Illustrator 23.0.1, SVG Export Plug-In . SVG Version: 6.00 Build 0)  -->
<svg version="1.1" id="Слой_1" xmlns="http://www.w3.org/2000/svg" xmlns:xlink="http://www.w3.org/1999/xlink" x="0px" y="0px"
	 viewBox="0 0 12 12" style="enable-background:new 0 0 12 12;" xml:space="preserve">
<path d="M10.7,3.8C10.7,3.8,10.7,3.8,10.7,3.8l0-2.5c0,0,0,0,0,0H8.2c0,0,0,0,0,0v2.5c0,0,0,0,0,0H10.7 M10.7,5.1H8.2
	c-1,0-1.3-0.3-1.3-1.2V1.2C6.9,0.3,7.3,0,8.2,0h2.4c1,0,1.3,0.3,1.3,1.2v2.7C12,4.8,11.6,5.1,10.7,5.1z"/>
<path d="M10.7,12H8.2c-0.7,0-1.3-0.6-1.3-1.3V8.2c0-0.7,0.6-1.3,1.3-1.3h2.4c0.7,0,1.3,0.6,1.3,1.3v2.4C12,11.4,11.4,12,10.7,12z
	 M8.2,8.2C8.2,8.2,8.2,8.2,8.2,8.2l0,2.5l2.5,0l0-2.5L8.2,8.2z"/>
<path d="M3.8,3.8C3.8,3.8,3.8,3.8,3.8,3.8l0-2.5c0,0,0,0,0,0H1.3c0,0,0,0,0,0v2.5c0,0,0,0,0,0H3.8 M3.8,5.1H1.3C0.4,5.1,0,4.8,0,3.9
	V1.2C0,0.3,0.4,0,1.3,0h2.4c1,0,1.3,0.3,1.3,1.2v2.7C5.1,4.8,4.7,5.1,3.8,5.1z"/>
<path d="M3.8,12H1.3C0.6,12,0,11.4,0,10.7V8.2c0-0.7,0.6-1.3,1.3-1.3h2.4c0.7,0,1.3,0.6,1.3,1.3v2.4C5.1,11.4,4.5,12,3.8,12z
	 M1.3,8.2C1.3,8.2,1.3,8.2,1.3,8.2l0,2.5l2.5,0l0-2.5L1.3,8.2z"/>
</svg>
