<?xml version="1.0" encoding="utf-8"?>
<!-- Generator: Adobe Illustrator 23.0.1, SVG Export Plug-In . SVG Version: 6.00 Build 0)  -->
<svg version="1.1" id="Слой_1" xmlns="http://www.w3.org/2000/svg" xmlns:xlink="http://www.w3.org/1999/xlink" x="0px" y="0px"
	 viewBox="0 0 18 20.7" style="enable-background:new 0 0 18 20.7;" xml:space="preserve">
<path d="M9,11.1c-3.1,0-5.5-2.5-5.5-5.5S5.9,0,9,0c3.1,0,5.5,2.5,5.5,5.5S12,11.1,9,11.1z M9,1.5c-2.2,0-4,1.8-4,4s1.8,4,4,4
	s4-1.8,4-4S11.2,1.5,9,1.5z"/>
<path d="M17.2,20.7c-0.4,0-0.8-0.3-0.8-0.8c0-3.3-3.4-6-7.5-6c-4.1,0-7.5,2.7-7.5,6c0,0.4-0.3,0.8-0.8,0.8S0,20.3,0,19.9
	c0-4.1,4-7.5,9-7.5c5,0,9,3.3,9,7.5C18,20.3,17.6,20.7,17.2,20.7z"/>
</svg>
