<?xml version="1.0" encoding="utf-8"?>
<!-- Generator: Adobe Illustrator 23.0.1, SVG Export Plug-In . SVG Version: 6.00 Build 0)  -->
<svg version="1.1" id="Слой_1" xmlns="http://www.w3.org/2000/svg" xmlns:xlink="http://www.w3.org/1999/xlink" x="0px" y="0px"
	 viewBox="0 0 24.3 17" style="enable-background:new 0 0 24.3 17;" xml:space="preserve">
<style type="text/css">
	.st0{fill:#FFFFFF;}
</style>
<path class="st0" d="M11.2,17c-0.8,0-1.6-0.3-2.5-0.8l-2.9-1.8c-0.2-0.1-0.5-0.2-0.7-0.2H3.6c-0.2,0-0.5,0-0.8,0
	c-0.9-0.1-1.6-0.6-2.2-1.3c-0.5-0.7-0.8-1.6-0.6-2.4l0-3.9C0,6.3,0,6,0,5.7C0.1,4.8,0.6,4,1.3,3.5C2,3,2.9,2.7,3.7,2.9l1.3,0
	c0.2,0,0.5-0.1,0.7-0.2l2.9-1.8c1.4-0.9,2.8-1.1,3.9-0.5c1.1,0.6,1.7,1.9,1.7,3.5v9.2c0,1.7-0.6,2.9-1.7,3.5
	C12.2,16.9,11.7,17,11.2,17z M5.1,12.9c0.5,0,1,0.1,1.4,0.4l2.9,1.8c1,0.6,1.9,0.8,2.6,0.4c0.6-0.4,1-1.2,1-2.4V3.9
	c0-1.2-0.4-2.1-1-2.4c-0.6-0.4-1.6-0.2-2.6,0.4L6.5,3.8C6.1,4,5.5,4.2,5.1,4.2H3.6C3,4.1,2.5,4.2,2.1,4.5C1.6,4.8,1.4,5.3,1.3,5.8
	c0,0.2,0,0.4,0,0.6l0,0.1v4c-0.1,0.6,0.1,1.1,0.4,1.6C2,12.5,2.5,12.8,3,12.9c0.2,0,0.4,0,0.6,0L5.1,12.9
	C5.1,12.9,5.1,12.9,5.1,12.9z"/>
<path class="st0" d="M19.1,11.2c-0.2,0-0.4-0.1-0.5-0.3c-0.2-0.3-0.2-0.7,0.1-0.9c0.1-0.1,0.3-0.2,0.4-0.4c0.3-0.4,0.4-0.9,0.4-1.4
	c-0.1-0.5-0.3-0.9-0.7-1.2c-0.3-0.2-0.3-0.6-0.1-0.9c0.2-0.3,0.6-0.3,0.9-0.1c0.7,0.5,1.1,1.2,1.2,2.1s-0.1,1.7-0.6,2.3
	c-0.2,0.2-0.4,0.5-0.6,0.6C19.3,11.1,19.2,11.2,19.1,11.2z"/>
<path class="st0" d="M21.1,14.8c-0.2,0-0.3-0.1-0.5-0.2c-0.2-0.3-0.2-0.7,0-0.9c1.6-1.5,2.4-3.3,2.4-5.2c0-1.9-0.8-3.7-2.4-5.2
	c-0.3-0.2-0.3-0.7,0-0.9c0.2-0.3,0.7-0.3,0.9,0c1.8,1.7,2.8,3.9,2.8,6.1c0,2.2-1,4.4-2.8,6.1C21.4,14.7,21.2,14.8,21.1,14.8z"/>
</svg>
