<svg xmlns="http://www.w3.org/2000/svg" width="17.033" height="15.693" viewBox="0 0 17.033 15.693">
  <g id="Сгруппировать_1077" data-name="Сгруппировать 1077" transform="translate(-126.909 -187.124)">
    <path id="Линия_109" data-name="Линия 109" d="M4.75.6H0A.6.6,0,0,1-.6,0,.6.6,0,0,1,0-.6H4.75a.6.6,0,0,1,.6.6A.6.6,0,0,1,4.75.6Z" transform="translate(131.467 194.301)" fill="#8a919f"/>
    <path id="Контур_449" data-name="Контур 449" d="M127.509,194.9a.6.6,0,0,1-.6-.6v-3.654a3.527,3.527,0,0,1,3.523-3.523h4.446a3.27,3.27,0,0,1,3.523,3.218.6.6,0,1,1-1.2,0,2.106,2.106,0,0,0-2.323-2.018h-4.446a2.326,2.326,0,0,0-2.323,2.323V194.3A.6.6,0,0,1,127.509,194.9Z" fill="#8a919f"/>
    <path id="Контур_450" data-name="Контур 450" d="M130.676,189.742h7.916a3.771,3.771,0,0,1,3.767,3.767v1.148a.6.6,0,0,1-.6.6H140.9a.98.98,0,0,0-.71.294l-.011.011a.991.991,0,0,0-.265.98,1.125,1.125,0,0,0,1.1.762h.736a.6.6,0,0,1,.6.6v1.148a3.771,3.771,0,0,1-3.767,3.766h-7.916a3.771,3.771,0,0,1-3.767-3.766v-5.542A3.771,3.771,0,0,1,130.676,189.742Zm10.483,4.315v-.548a2.57,2.57,0,0,0-2.567-2.567h-7.916a2.57,2.57,0,0,0-2.567,2.567v5.542a2.569,2.569,0,0,0,2.567,2.566h7.916a2.569,2.569,0,0,0,2.567-2.566V198.5h-.136a2.31,2.31,0,0,1-2.263-1.648,2.206,2.206,0,0,1,.579-2.147,2.171,2.171,0,0,1,1.565-.651Z" fill="#8a919f"/>
    <path id="Контур_451" data-name="Контур 451" d="M140.9,194.057h1.623a1.413,1.413,0,0,1,1.415,1.407V197.1a1.413,1.413,0,0,1-1.415,1.408H141a2.285,2.285,0,0,1-2.308-2.027,2.231,2.231,0,0,1,2.213-2.419Zm1.623,3.246a.212.212,0,0,0,.215-.208v-1.631a.211.211,0,0,0-.215-.207H140.9a.98.98,0,0,0-.71.293l-.011.011a.989.989,0,0,0-.3.8v.007A1.093,1.093,0,0,0,141,197.3Z" fill="#8a919f"/>
  </g>
</svg>
