<?xml version="1.0" encoding="utf-8"?>
<!-- Generator: Adobe Illustrator 23.0.1, SVG Export Plug-In . SVG Version: 6.00 Build 0)  -->
<svg version="1.1" id="Слой_1" xmlns="http://www.w3.org/2000/svg" xmlns:xlink="http://www.w3.org/1999/xlink" x="0px" y="0px"
	 viewBox="0 0 15.3 16.8" style="enable-background:new 0 0 15.3 16.8;" xml:space="preserve">
<style type="text/css">
	.st0{fill:#75769A;}
</style>
<path id="Контур_1137" class="st0" d="M8.8,0L8.8,0c0.9,0.1,1.7,0.4,2.3,1.1c0.8,0.6,1.2,1.5,1.2,2.5
	c-0.1,0.8-0.5,1.5-1.1,2.1l-5.6,6c-0.4,0.4-0.8,0.6-1.3,0.7l-2.2,0.4c-0.1,0-0.2,0-0.4,0c-0.5,0-1-0.2-1.3-0.6
	c-0.3-0.4-0.5-0.9-0.4-1.4l0.3-2.2c0.1-0.5,0.3-1,0.6-1.4l5.6-6C7.1,0.5,7.9,0.1,8.8,0z M1.7,11.4c0,0,0.1,0,0.1,0L4,11
	c0.2-0.1,0.4-0.2,0.6-0.3l5.6-6c0.8-0.9,1.1-1.6-0.1-2.7C9.9,1.6,9.4,1.4,8.8,1.3c-0.5,0.1-1,0.3-1.4,0.8l-5.6,6
	C1.7,8.2,1.6,8.4,1.6,8.7l-0.3,2.2c0,0.1,0,0.3,0.1,0.4C1.5,11.4,1.6,11.4,1.7,11.4L1.7,11.4z"/>
<path id="Контур_1138" class="st0" d="M9.8,6.8L9.8,6.8c-2.3-0.2-4-1.9-4.4-4.1C5.4,2.4,5.6,2.1,6,2c0.3,0,0.7,0.2,0.7,0.5
	c0.2,1.6,1.6,2.8,3.2,3c0.4,0,0.6,0.3,0.6,0.7C10.5,6.6,10.2,6.8,9.8,6.8L9.8,6.8z"/>
<path id="Контур_1139" class="st0" d="M1.8,16.8C0.8,16.8,0,16,0,15c0-0.4,0.3-0.6,0.7-0.6s0.7,0.3,0.7,0.6
	c0,0.3,0.2,0.5,0.5,0.5c0.1,0,0.2,0,0.3-0.1l8.7-5c1-0.7,2.2-0.8,3.3-0.3c0.8,0.4,1.3,1.3,1.2,2.2V15c0,0.4-0.3,0.6-0.7,0.6
	S14,15.4,14,15l0,0v-2.7c0-0.4-0.2-0.8-0.5-1c-0.6-0.3-1.4-0.2-2,0.3l0,0l-8.8,5C2.4,16.8,2.1,16.8,1.8,16.8z"/>
</svg>
